<svg xmlns="http://www.w3.org/2000/svg" xmlns:xlink="http://www.w3.org/1999/xlink" contentStyleType="text/css" data-diagram-type="STATE" height="1522px" preserveAspectRatio="none" style="width:1872px;height:1522px;background:#FFFFFF;" version="1.1" viewBox="0 0 1872 1522" width="1872px" zoomAndPan="magnify"><defs/><g><ellipse cx="644" cy="16" fill="#222222" rx="10" ry="10" style="stroke:#222222;stroke-width:1;"/><g id="EnConstruction"><rect fill="#F1F1F1" height="64.2344" rx="12.5" ry="12.5" style="stroke:#181818;stroke-width:0.5;" width="157.4258" x="565.5" y="189.5"/><line style="stroke:#181818;stroke-width:0.5;" x1="565.5" x2="722.9258" y1="215.7969" y2="215.7969"/><text fill="#000000" font-family="sans-serif" font-size="14" lengthAdjust="spacing" textLength="106.8594" x="590.7832" y="207.4951">EnConstruction</text><text fill="#000000" font-family="sans-serif" font-size="12" lengthAdjust="spacing" textLength="120.6387" x="570.5" y="231.9355">entry : initChamps()</text><text fill="#000000" font-family="sans-serif" font-size="12" lengthAdjust="spacing" textLength="137.4258" x="570.5" y="245.9043">exit : validerDonnees()</text></g><g id="EnAttentePaiement"><rect fill="#F1F1F1" height="78.2031" rx="12.5" ry="12.5" style="stroke:#181818;stroke-width:0.5;" width="186.7109" x="550.5" y="693"/><line style="stroke:#181818;stroke-width:0.5;" x1="550.5" x2="737.2109" y1="719.2969" y2="719.2969"/><text fill="#000000" font-family="sans-serif" font-size="14" lengthAdjust="spacing" textLength="136.001" x="575.855" y="710.9951">EnAttentePaiement</text><text fill="#000000" font-family="sans-serif" font-size="12" lengthAdjust="spacing" textLength="130.3652" x="555.5" y="735.4355">entry : notifierClient()</text><text fill="#000000" font-family="sans-serif" font-size="12" lengthAdjust="spacing" textLength="144.3691" x="555.5" y="749.4043">do : attendrePaiement()</text><text fill="#000000" font-family="sans-serif" font-size="12" lengthAdjust="spacing" textLength="166.7109" x="555.5" y="763.373">exit : enregistrerPaiement()</text></g><g id="Confirm&#233;e"><rect fill="#F1F1F1" height="64.2344" rx="12.5" ry="12.5" style="stroke:#181818;stroke-width:0.5;" width="150.3242" x="7" y="1165"/><line style="stroke:#181818;stroke-width:0.5;" x1="7" x2="157.3242" y1="1191.2969" y2="1191.2969"/><text fill="#000000" font-family="sans-serif" font-size="14" lengthAdjust="spacing" textLength="72.6523" x="45.8359" y="1182.9951">Confirm&#233;e</text><text fill="#000000" font-family="sans-serif" font-size="12" lengthAdjust="spacing" textLength="130.3242" x="12" y="1207.4355">entry : genererBillet()</text><text fill="#000000" font-family="sans-serif" font-size="12" lengthAdjust="spacing" textLength="90.3926" x="12" y="1221.4043">exit : cloturer()</text></g><g id="Annul&#233;e"><rect fill="#F1F1F1" height="64.2344" rx="12.5" ry="12.5" style="stroke:#181818;stroke-width:0.5;" width="180.3242" x="554" y="1165"/><line style="stroke:#181818;stroke-width:0.5;" x1="554" x2="734.3242" y1="1191.2969" y2="1191.2969"/><text fill="#000000" font-family="sans-serif" font-size="14" lengthAdjust="spacing" textLength="57.3125" x="615.5059" y="1182.9951">Annul&#233;e</text><text fill="#000000" font-family="sans-serif" font-size="12" lengthAdjust="spacing" textLength="160.3242" x="559" y="1207.4355">entry : notifierAnnulation()</text><text fill="#000000" font-family="sans-serif" font-size="12" lengthAdjust="spacing" textLength="92.8008" x="559" y="1221.4043">exit : archiver()</text></g><g id="Expir&#233;e"><rect fill="#F1F1F1" height="64.2344" rx="12.5" ry="12.5" style="stroke:#181818;stroke-width:0.5;" width="176.5332" x="1247.5" y="1165"/><line style="stroke:#181818;stroke-width:0.5;" x1="1247.5" x2="1424.0332" y1="1191.2969" y2="1191.2969"/><text fill="#000000" font-family="sans-serif" font-size="14" lengthAdjust="spacing" textLength="52.8896" x="1309.3218" y="1182.9951">Expir&#233;e</text><text fill="#000000" font-family="sans-serif" font-size="12" lengthAdjust="spacing" textLength="156.5332" x="1252.5" y="1207.4355">entry : notifierExpiration()</text><text fill="#000000" font-family="sans-serif" font-size="12" lengthAdjust="spacing" textLength="94.7168" x="1252.5" y="1221.4043">exit : nettoyer()</text></g><g id="EnDestruction"><rect fill="#F1F1F1" height="50.2656" rx="12.5" ry="12.5" style="stroke:#181818;stroke-width:0.5;" width="142.4844" x="573" y="1365"/><line style="stroke:#181818;stroke-width:0.5;" x1="573" x2="715.4844" y1="1391.2969" y2="1391.2969"/><text fill="#000000" font-family="sans-serif" font-size="14" lengthAdjust="spacing" textLength="99.0391" x="594.7227" y="1382.9951">EnDestruction</text><text fill="#000000" font-family="sans-serif" font-size="12" lengthAdjust="spacing" textLength="122.4844" x="578" y="1407.4355">entry : destructeur()</text></g><ellipse cx="644" cy="1505" fill="transparent" rx="11" ry="11" style="stroke:#222222;stroke-width:1;"/><ellipse cx="644" cy="1505" fill="#222222" rx="6" ry="6" style="stroke:#222222;stroke-width:1;"/><g id="elem_GMN2"><path d="M133.5,103 L133.5,339.9922 A0,0 0 0 0 133.5,339.9922 L530.7446,339.9922 A0,0 0 0 0 530.7446,339.9922 L530.7446,225.5 L565.19,221.5 L530.7446,217.5 L530.7446,113 L520.7446,103 L133.5,103 A0,0 0 0 0 133.5,103 " fill="#FEFFDD" style="stroke:#181818;stroke-width:0.5;"/><path d="M520.7446,103 L520.7446,113 L530.7446,113 L520.7446,103 " fill="#FEFFDD" style="stroke:#181818;stroke-width:0.5;"/><text fill="#000000" font-family="sans-serif" font-size="13" lengthAdjust="spacing" textLength="288.0693" x="139.5" y="120.0669">// creerReservation() &#8212; point d&#8217;entr&#233;e initial</text><text fill="#000000" font-family="sans-serif" font-size="13" lengthAdjust="spacing" textLength="134.0879" x="139.5" y="135.1997">creerReservation() {</text><text fill="#000000" font-family="sans-serif" font-size="13" lengthAdjust="spacing" textLength="115.9082" x="147.7646" y="150.3325">this.initChamps();</text><text fill="#000000" font-family="sans-serif" font-size="13" lengthAdjust="spacing" textLength="8.271" x="139.5" y="165.4653">}</text><text fill="#000000" font-family="sans-serif" font-size="13" lengthAdjust="spacing" textLength="4.1323" x="139.5" y="180.5981">&#160;</text><text fill="#000000" font-family="sans-serif" font-size="13" lengthAdjust="spacing" textLength="178.8579" x="139.5" y="195.731">// Initialisation des donn&#233;es</text><text fill="#000000" font-family="sans-serif" font-size="13" lengthAdjust="spacing" textLength="96.0781" x="139.5" y="210.8638">initChamps() {</text><text fill="#000000" font-family="sans-serif" font-size="13" lengthAdjust="spacing" textLength="239.7891" x="147.7646" y="225.9966">this.dateReservation = aujourdHui();</text><text fill="#000000" font-family="sans-serif" font-size="13" lengthAdjust="spacing" textLength="205.2007" x="147.7646" y="241.1294">this.statut = "en_construction";</text><text fill="#000000" font-family="sans-serif" font-size="13" lengthAdjust="spacing" textLength="8.271" x="139.5" y="256.2622">}</text><text fill="#000000" font-family="sans-serif" font-size="13" lengthAdjust="spacing" textLength="4.1323" x="139.5" y="271.395">&#160;</text><text fill="#000000" font-family="sans-serif" font-size="13" lengthAdjust="spacing" textLength="240.9824" x="139.5" y="286.5278">// Validation des champs obligatoires</text><text fill="#000000" font-family="sans-serif" font-size="13" lengthAdjust="spacing" textLength="124.2363" x="139.5" y="301.6606">validerDonnees() {</text><text fill="#000000" font-family="sans-serif" font-size="13" lengthAdjust="spacing" textLength="367.98" x="147.7646" y="316.7935">return (film != null &amp;&amp; seance != null &amp;&amp; nbPlaces &gt; 0);</text><text fill="#000000" font-family="sans-serif" font-size="13" lengthAdjust="spacing" textLength="8.271" x="139.5" y="331.9263">}</text></g><g id="elem_GMN5"><path d="M772.5,417 L772.5,728 L737.88,732 L772.5,736 L772.5,1047.4453 A0,0 0 0 0 772.5,1047.4453 L1303.769,1047.4453 A0,0 0 0 0 1303.769,1047.4453 L1303.769,427 L1293.769,417 L772.5,417 A0,0 0 0 0 772.5,417 " fill="#FEFFDD" style="stroke:#181818;stroke-width:0.5;"/><path d="M1293.769,417 L1293.769,427 L1303.769,427 L1293.769,417 " fill="#FEFFDD" style="stroke:#181818;stroke-width:0.5;"/><text fill="#000000" font-family="sans-serif" font-size="13" lengthAdjust="spacing" textLength="204.6421" x="778.5" y="434.0669">// G&#233;n&#232;re une r&#233;f&#233;rence unique</text><text fill="#000000" font-family="sans-serif" font-size="13" lengthAdjust="spacing" textLength="140.0547" x="778.5" y="449.1997">g&#233;n&#233;rerR&#233;f&#233;rence() {</text><text fill="#000000" font-family="sans-serif" font-size="13" lengthAdjust="spacing" textLength="244.48" x="786.7646" y="464.3325">this.reference = UUID.randomUUID();</text><text fill="#000000" font-family="sans-serif" font-size="13" lengthAdjust="spacing" textLength="8.271" x="778.5" y="479.4653">}</text><text fill="#000000" font-family="sans-serif" font-size="13" lengthAdjust="spacing" textLength="4.1323" x="778.5" y="494.5981">&#160;</text><text fill="#000000" font-family="sans-serif" font-size="13" lengthAdjust="spacing" textLength="127.3213" x="778.5" y="509.731">// Notification client</text><text fill="#000000" font-family="sans-serif" font-size="13" lengthAdjust="spacing" textLength="106.6152" x="778.5" y="524.8638">notifierClient() {</text><text fill="#000000" font-family="sans-serif" font-size="13" lengthAdjust="spacing" textLength="502.0044" x="786.7646" y="539.9966">Notification.envoyer(client, "Votre r&#233;servation est en attente de paiement.");</text><text fill="#000000" font-family="sans-serif" font-size="13" lengthAdjust="spacing" textLength="8.271" x="778.5" y="555.1294">}</text><text fill="#000000" font-family="sans-serif" font-size="13" lengthAdjust="spacing" textLength="4.1323" x="778.5" y="570.2622">&#160;</text><text fill="#000000" font-family="sans-serif" font-size="13" lengthAdjust="spacing" textLength="186.729" x="778.5" y="585.395">// Boucle d&#8217;attente paiement</text><text fill="#000000" font-family="sans-serif" font-size="13" lengthAdjust="spacing" textLength="139.9531" x="778.5" y="600.5278">attendrePaiement() {</text><text fill="#000000" font-family="sans-serif" font-size="13" lengthAdjust="spacing" textLength="312.7617" x="786.7646" y="615.6606">while (!paiementEffectue &amp;&amp; !delaiDepasse()) {</text><text fill="#000000" font-family="sans-serif" font-size="13" lengthAdjust="spacing" textLength="74.1279" x="795.0293" y="630.7935">patienter();</text><text fill="#000000" font-family="sans-serif" font-size="13" lengthAdjust="spacing" textLength="8.271" x="786.7646" y="645.9263">}</text><text fill="#000000" font-family="sans-serif" font-size="13" lengthAdjust="spacing" textLength="8.271" x="778.5" y="661.0591">}</text><text fill="#000000" font-family="sans-serif" font-size="13" lengthAdjust="spacing" textLength="4.1323" x="778.5" y="676.1919">&#160;</text><text fill="#000000" font-family="sans-serif" font-size="13" lengthAdjust="spacing" textLength="198.7515" x="778.5" y="691.3247">// Paiement re&#231;u &#8594; mise &#224; jour</text><text fill="#000000" font-family="sans-serif" font-size="13" lengthAdjust="spacing" textLength="155.9619" x="778.5" y="706.4575">enregistrerPaiement() {</text><text fill="#000000" font-family="sans-serif" font-size="13" lengthAdjust="spacing" textLength="191.1914" x="786.7646" y="721.5903">paiement.setStatut("valid&#233;");</text><text fill="#000000" font-family="sans-serif" font-size="13" lengthAdjust="spacing" textLength="223.4946" x="786.7646" y="736.7231">this.datePaiement = aujourdHui();</text><text fill="#000000" font-family="sans-serif" font-size="13" lengthAdjust="spacing" textLength="8.271" x="778.5" y="751.856">}</text><text fill="#000000" font-family="sans-serif" font-size="13" lengthAdjust="spacing" textLength="4.1323" x="778.5" y="766.9888">&#160;</text><text fill="#000000" font-family="sans-serif" font-size="13" lengthAdjust="spacing" textLength="179.2324" x="778.5" y="782.1216">// Paiement OK &#8594; confirmer</text><text fill="#000000" font-family="sans-serif" font-size="13" lengthAdjust="spacing" textLength="144.7329" x="778.5" y="797.2544">validerReservation() {</text><text fill="#000000" font-family="sans-serif" font-size="13" lengthAdjust="spacing" textLength="175.792" x="786.7646" y="812.3872">this.enregistrerPaiement();</text><text fill="#000000" font-family="sans-serif" font-size="13" lengthAdjust="spacing" textLength="126.4009" x="786.7646" y="827.52">this.genererBillet();</text><text fill="#000000" font-family="sans-serif" font-size="13" lengthAdjust="spacing" textLength="93.1138" x="786.7646" y="842.6528">this.cloturer();</text><text fill="#000000" font-family="sans-serif" font-size="13" lengthAdjust="spacing" textLength="8.271" x="778.5" y="857.7856">}</text><text fill="#000000" font-family="sans-serif" font-size="13" lengthAdjust="spacing" textLength="4.1323" x="778.5" y="872.9185">&#160;</text><text fill="#000000" font-family="sans-serif" font-size="13" lengthAdjust="spacing" textLength="152.7373" x="778.5" y="888.0513">// Timeout de paiement</text><text fill="#000000" font-family="sans-serif" font-size="13" lengthAdjust="spacing" textLength="146.4976" x="778.5" y="903.1841">expirerReservation() {</text><text fill="#000000" font-family="sans-serif" font-size="13" lengthAdjust="spacing" textLength="154.7939" x="786.7646" y="918.3169">this.notifierExpiration();</text><text fill="#000000" font-family="sans-serif" font-size="13" lengthAdjust="spacing" textLength="97.7983" x="786.7646" y="933.4497">this.nettoyer();</text><text fill="#000000" font-family="sans-serif" font-size="13" lengthAdjust="spacing" textLength="8.271" x="778.5" y="948.5825">}</text><text fill="#000000" font-family="sans-serif" font-size="13" lengthAdjust="spacing" textLength="4.1323" x="778.5" y="963.7153">&#160;</text><text fill="#000000" font-family="sans-serif" font-size="13" lengthAdjust="spacing" textLength="212.9766" x="778.5" y="978.8481">// Annulation manuelle par client</text><text fill="#000000" font-family="sans-serif" font-size="13" lengthAdjust="spacing" textLength="133.0977" x="778.5" y="993.981">traiterAnnulation() {</text><text fill="#000000" font-family="sans-serif" font-size="13" lengthAdjust="spacing" textLength="158.9009" x="786.7646" y="1009.1138">this.notifierAnnulation();</text><text fill="#000000" font-family="sans-serif" font-size="13" lengthAdjust="spacing" textLength="95.7227" x="786.7646" y="1024.2466">this.archiver();</text><text fill="#000000" font-family="sans-serif" font-size="13" lengthAdjust="spacing" textLength="8.271" x="778.5" y="1039.3794">}</text></g><g id="elem_GMN8"><path d="M191.5,1124 L191.5,1193 L157.18,1197 L191.5,1201 L191.5,1270.1953 A0,0 0 0 0 191.5,1270.1953 L518.0952,1270.1953 A0,0 0 0 0 518.0952,1270.1953 L518.0952,1134 L508.0952,1124 L191.5,1124 A0,0 0 0 0 191.5,1124 " fill="#FEFFDD" style="stroke:#181818;stroke-width:0.5;"/><path d="M508.0952,1124 L508.0952,1134 L518.0952,1134 L508.0952,1124 " fill="#FEFFDD" style="stroke:#181818;stroke-width:0.5;"/><text fill="#000000" font-family="sans-serif" font-size="13" lengthAdjust="spacing" textLength="142.3525" x="197.5" y="1141.0669">// G&#233;n&#233;ration du billet</text><text fill="#000000" font-family="sans-serif" font-size="13" lengthAdjust="spacing" textLength="106.5708" x="197.5" y="1156.1997">genererBillet() {</text><text fill="#000000" font-family="sans-serif" font-size="13" lengthAdjust="spacing" textLength="297.3306" x="205.7646" y="1171.3325">this.billet = new Billet(client, seance, sieges);</text><text fill="#000000" font-family="sans-serif" font-size="13" lengthAdjust="spacing" textLength="8.271" x="197.5" y="1186.4653">}</text><text fill="#000000" font-family="sans-serif" font-size="13" lengthAdjust="spacing" textLength="4.1323" x="197.5" y="1201.5981">&#160;</text><text fill="#000000" font-family="sans-serif" font-size="13" lengthAdjust="spacing" textLength="124.0078" x="197.5" y="1216.731">// Mise &#224; jour finale</text><text fill="#000000" font-family="sans-serif" font-size="13" lengthAdjust="spacing" textLength="73.2837" x="197.5" y="1231.8638">cloturer() {</text><text fill="#000000" font-family="sans-serif" font-size="13" lengthAdjust="spacing" textLength="167.1528" x="205.7646" y="1246.9966">this.statut = "confirm&#233;e";</text><text fill="#000000" font-family="sans-serif" font-size="13" lengthAdjust="spacing" textLength="8.271" x="197.5" y="1262.1294">}</text></g><g id="elem_GMN11"><path d="M769.5,1124 L769.5,1193 L734.14,1197 L769.5,1201 L769.5,1270.1953 A0,0 0 0 0 769.5,1270.1953 L1212.1812,1270.1953 A0,0 0 0 0 1212.1812,1270.1953 L1212.1812,1134 L1202.1812,1124 L769.5,1124 A0,0 0 0 0 769.5,1124 " fill="#FEFFDD" style="stroke:#181818;stroke-width:0.5;"/><path d="M1202.1812,1124 L1202.1812,1134 L1212.1812,1134 L1202.1812,1124 " fill="#FEFFDD" style="stroke:#181818;stroke-width:0.5;"/><text fill="#000000" font-family="sans-serif" font-size="13" lengthAdjust="spacing" textLength="112.4551" x="775.5" y="1141.0669">// Avertir le client</text><text fill="#000000" font-family="sans-serif" font-size="13" lengthAdjust="spacing" textLength="139.0708" x="775.5" y="1156.1997">notifierAnnulation() {</text><text fill="#000000" font-family="sans-serif" font-size="13" lengthAdjust="spacing" textLength="413.4165" x="783.7646" y="1171.3325">Notification.envoyer(client, "Votre r&#233;servation a &#233;t&#233; annul&#233;e.");</text><text fill="#000000" font-family="sans-serif" font-size="13" lengthAdjust="spacing" textLength="8.271" x="775.5" y="1186.4653">}</text><text fill="#000000" font-family="sans-serif" font-size="13" lengthAdjust="spacing" textLength="4.1323" x="775.5" y="1201.5981">&#160;</text><text fill="#000000" font-family="sans-serif" font-size="13" lengthAdjust="spacing" textLength="160.1069" x="775.5" y="1216.731">// Sauvegarde historique</text><text fill="#000000" font-family="sans-serif" font-size="13" lengthAdjust="spacing" textLength="75.8926" x="775.5" y="1231.8638">archiver() {</text><text fill="#000000" font-family="sans-serif" font-size="13" lengthAdjust="spacing" textLength="155.2446" x="783.7646" y="1246.9966">Historique.ajouter(this);</text><text fill="#000000" font-family="sans-serif" font-size="13" lengthAdjust="spacing" textLength="8.271" x="775.5" y="1262.1294">}</text></g><g id="elem_GMN14"><path d="M1459,1124 L1459,1193 L1424.5,1197 L1459,1201 L1459,1270.1953 A0,0 0 0 0 1459,1270.1953 L1865.0615,1270.1953 A0,0 0 0 0 1865.0615,1270.1953 L1865.0615,1134 L1855.0615,1124 L1459,1124 A0,0 0 0 0 1459,1124 " fill="#FEFFDD" style="stroke:#181818;stroke-width:0.5;"/><path d="M1855.0615,1124 L1855.0615,1134 L1865.0615,1134 L1855.0615,1124 " fill="#FEFFDD" style="stroke:#181818;stroke-width:0.5;"/><text fill="#000000" font-family="sans-serif" font-size="13" lengthAdjust="spacing" textLength="176.9727" x="1465" y="1141.0669">// Avertissement expiration</text><text fill="#000000" font-family="sans-serif" font-size="13" lengthAdjust="spacing" textLength="134.9639" x="1465" y="1156.1997">notifierExpiration() {</text><text fill="#000000" font-family="sans-serif" font-size="13" lengthAdjust="spacing" textLength="376.7969" x="1473.2646" y="1171.3325">Notification.envoyer(client, "Votre r&#233;servation a expir&#233;.");</text><text fill="#000000" font-family="sans-serif" font-size="13" lengthAdjust="spacing" textLength="8.271" x="1465" y="1186.4653">}</text><text fill="#000000" font-family="sans-serif" font-size="13" lengthAdjust="spacing" textLength="4.1323" x="1465" y="1201.5981">&#160;</text><text fill="#000000" font-family="sans-serif" font-size="13" lengthAdjust="spacing" textLength="150.9028" x="1465" y="1216.731">// Lib&#233;ration des si&#232;ges</text><text fill="#000000" font-family="sans-serif" font-size="13" lengthAdjust="spacing" textLength="77.9683" x="1465" y="1231.8638">nettoyer() {</text><text fill="#000000" font-family="sans-serif" font-size="13" lengthAdjust="spacing" textLength="219.083" x="1473.2646" y="1246.9966">seance.libererSieges(this.sieges);</text><text fill="#000000" font-family="sans-serif" font-size="13" lengthAdjust="spacing" textLength="8.271" x="1465" y="1262.1294">}</text></g><g id="elem_GMN17"><path d="M750.5,1347 L750.5,1386 L715,1390 L750.5,1394 L750.5,1432.6641 A0,0 0 0 0 750.5,1432.6641 L1035.1436,1432.6641 A0,0 0 0 0 1035.1436,1432.6641 L1035.1436,1357 L1025.1436,1347 L750.5,1347 A0,0 0 0 0 750.5,1347 " fill="#FEFFDD" style="stroke:#181818;stroke-width:0.5;"/><path d="M1025.1436,1347 L1025.1436,1357 L1035.1436,1357 L1025.1436,1347 " fill="#FEFFDD" style="stroke:#181818;stroke-width:0.5;"/><text fill="#000000" font-family="sans-serif" font-size="13" lengthAdjust="spacing" textLength="157.4346" x="756.5" y="1364.0669">// Suppression compl&#232;te</text><text fill="#000000" font-family="sans-serif" font-size="13" lengthAdjust="spacing" textLength="98.0776" x="756.5" y="1379.1997">destructeur() {</text><text fill="#000000" font-family="sans-serif" font-size="13" lengthAdjust="spacing" textLength="215.7314" x="764.7646" y="1394.3325">BaseDeDonn&#233;es.supprimer(this);</text><text fill="#000000" font-family="sans-serif" font-size="13" lengthAdjust="spacing" textLength="255.3789" x="764.7646" y="1409.4653">Log.ajouter("R&#233;servation supprim&#233;e.");</text><text fill="#000000" font-family="sans-serif" font-size="13" lengthAdjust="spacing" textLength="8.271" x="756.5" y="1424.5981">}</text></g><!--link *start* to EnConstruction--><g id="link_*start*_EnConstruction"><path d="M644,26.01 C644,54.24 644,135.93 644,183.33 " fill="transparent" id="*start*-to-EnConstruction" style="stroke:#181818;stroke-width:1;"/><polygon fill="#181818" points="644,189.33,648,180.33,644,184.33,640,180.33,644,189.33" style="stroke:#181818;stroke-width:1;"/><text fill="#000000" font-family="sans-serif" font-size="13" lengthAdjust="spacing" textLength="171.8438" x="645" y="69.0669">initier / creerReservation()</text></g><!--link EnConstruction to EnAttentePaiement--><g id="link_EnConstruction_EnAttentePaiement"><path d="M644,253.54 C644,342.17 644,590.17 644,686.94 " fill="transparent" id="EnConstruction-to-EnAttentePaiement" style="stroke:#181818;stroke-width:1;"/><polygon fill="#181818" points="644,692.94,648,683.94,644,687.94,640,683.94,644,692.94" style="stroke:#181818;stroke-width:1;"/><text fill="#000000" font-family="sans-serif" font-size="13" lengthAdjust="spacing" textLength="258.4639" x="645" y="383.0669">confirmerCreation / g&#233;n&#233;rerR&#233;f&#233;rence()</text></g><!--link EnAttentePaiement to Confirm?e--><g id="link_EnAttentePaiement_Confirm&#233;e"><path d="M597.53,771.28 C488.79,860.87 224.0707,1078.9547 124.4607,1161.0247 " fill="transparent" id="EnAttentePaiement-to-Confirm&#233;e" style="stroke:#181818;stroke-width:1;"/><polygon fill="#181818" points="119.83,1164.84,129.3196,1162.2042,123.6889,1161.6606,124.2325,1156.0299,119.83,1164.84" style="stroke:#181818;stroke-width:1;"/><text fill="#000000" font-family="sans-serif" font-size="13" lengthAdjust="spacing" textLength="353.4756" x="219" y="1090.0669">paiementEffectue[montant &gt; 0] / validerReservation()</text></g><!--link EnAttentePaiement to Annul?e--><g id="link_EnAttentePaiement_Annul&#233;e"><path d="M644,771.28 C644,860.87 644,1076.77 644,1158.84 " fill="transparent" id="EnAttentePaiement-to-Annul&#233;e" style="stroke:#181818;stroke-width:1;"/><polygon fill="#181818" points="644,1164.84,648,1155.84,644,1159.84,640,1155.84,644,1164.84" style="stroke:#181818;stroke-width:1;"/><text fill="#000000" font-family="sans-serif" font-size="13" lengthAdjust="spacing" textLength="362.959" x="645" y="1090.0669">clientAnnule[statut == en_attente] / traiterAnnulation()</text></g><!--link EnAttentePaiement to Expir?e--><g id="link_EnAttentePaiement_Expir&#233;e"><path d="M645.2,771.2 C649.55,838.74 669.08,978.55 755,1047 C800.66,1083.38 958.41,1067.39 1016,1077 C1112.05,1093.03 1140.55,1085.5 1230,1124 C1254.11,1134.38 1273.7051,1146.91 1293.0051,1161.26 " fill="transparent" id="EnAttentePaiement-to-Expir&#233;e" style="stroke:#181818;stroke-width:1;"/><polygon fill="#181818" points="1297.82,1164.84,1292.9843,1156.26,1293.8076,1161.8567,1288.2109,1162.6799,1297.82,1164.84" style="stroke:#181818;stroke-width:1;"/><text fill="#000000" font-family="sans-serif" font-size="13" lengthAdjust="spacing" textLength="335.7466" x="1138" y="1090.0669">delaiDepasse[d&#233;lai &gt; 15min] / expirerReservation()</text></g><!--link Confirm?e to EnDestruction--><g id="link_Confirm&#233;e_EnDestruction"><path d="M114.65,1229.02 C131.29,1243.34 152.51,1259.46 174,1270 C306.44,1334.96 471.8706,1365.8997 566.8006,1379.4897 " fill="transparent" id="Confirm&#233;e-to-EnDestruction" style="stroke:#181818;stroke-width:1;"/><polygon fill="#181818" points="572.74,1380.34,564.3977,1375.1049,567.7905,1379.6314,563.264,1383.0242,572.74,1380.34" style="stroke:#181818;stroke-width:1;"/><text fill="#000000" font-family="sans-serif" font-size="13" lengthAdjust="spacing" textLength="216.0869" x="286" y="1313.0669">supprimerReservation / destroy()</text></g><!--link Annul?e to EnDestruction--><g id="link_Annul&#233;e_EnDestruction"><path d="M644,1229.11 C644,1267.06 644,1324.4 644,1358.87 " fill="transparent" id="Annul&#233;e-to-EnDestruction" style="stroke:#181818;stroke-width:1;"/><polygon fill="#181818" points="644,1364.87,648,1355.87,644,1359.87,640,1355.87,644,1364.87" style="stroke:#181818;stroke-width:1;"/><text fill="#000000" font-family="sans-serif" font-size="13" lengthAdjust="spacing" textLength="216.0869" x="645" y="1313.0669">supprimerReservation / destroy()</text></g><!--link Expir?e to EnDestruction--><g id="link_Expir&#233;e_EnDestruction"><path d="M1299.07,1229.09 C1279.68,1243.79 1254.84,1260.22 1230,1270 C1022.02,1351.91 946.72,1281.52 733,1347 C718.13,1351.55 708.0011,1355.5877 694.1411,1362.2277 " fill="transparent" id="Expir&#233;e-to-EnDestruction" style="stroke:#181818;stroke-width:1;"/><polygon fill="#181818" points="688.73,1364.82,698.5748,1364.5389,693.2392,1362.6597,695.1184,1357.3241,688.73,1364.82" style="stroke:#181818;stroke-width:1;"/><text fill="#000000" font-family="sans-serif" font-size="13" lengthAdjust="spacing" textLength="216.0869" x="1131" y="1313.0669">supprimerReservation / destroy()</text></g><!--link EnDestruction to *end*--><g id="link_EnDestruction_*end*"><path d="M644,1415.24 C644,1439.75 644,1470.45 644,1487.98 " fill="transparent" id="EnDestruction-to-*end*" style="stroke:#181818;stroke-width:1;"/><polygon fill="#181818" points="644,1493.98,648,1484.98,644,1488.98,640,1484.98,644,1493.98" style="stroke:#181818;stroke-width:1;"/></g><!--SRC=[dLRDRXit4BxpASOwf4hGAEsXbnOAO4j64pHDWxZ9HJ0AQdTMOh5BgYJNYL44oAaFKFJIMs-rdcFVn4_I8Rcxf5Ph0xKFreexln-_-KQh9vVmzEbpE9SB9OtLTMQ5al0j22ciG0tF8DE8-YqQr5VSlPm-Pkp87ANLrwtROikhdI6pOwkFmjB75Iz5Zdgff4Gq8_52HQVMKbXymmLMz42EcPA5q1NgXKPV2vMtQVQosMigiTaNxa5c648U-tTLIcL5GTqjIa57lj9ZurpHF-wESzsVts7RDePIuqPG7wWJXn4Fr-0YDDFiaJntxPlpei3CrhYgbBISB9_3LvVKPGlPuJMCnpsLiYv3rCptvmzmPIotjONvdChyXGT75zfgBYngRtL_vFEFEw53v1nBBfQuuyRWAc_sz8rA_VgRIaWN4vtb4MiEEkxkOeCIoVHCb2Kwj0wD0gvPgMnDHYv8qjxmEWzQIEr25AwphRWAKP9MXb7ygnw8n2v4aMYjkWvHabe3PPUOqjtKkvqMrG4E14xkZDHrMkE3lFlQ7kJDXXuT3dbxYhNsJ4YjNARLaql6lg37qJzuhImQE2qtIWkxhSHlDNszmvWn0XsXnCA2AWOYn9wDQG_SVluBTaeG9VFRpt-xeXq4NgvuoKOSVcS0TYlCBDMcxzWdvXAy37x2182eTvfxIOA2XgNsCKhEBQQOpe7NlwfQvozguUAsPjsqmOIcBKlQcdIftxkHZcapdmdKkXGRRXMDZs53eVHLQAHPa30jH5d1oHo8GYKyUWG6EKbVUYBNRqgUKMmI4TynIPcZERQuQx7Pji0FnjtLzxqJrXkDK4ioZU9Atzsbid7XZK1fB30upE7TkvVBcUOoLvLxZFY_zaEN1HY2NB6XElkGgU4CvPKVmU3m9KpUAz9SLsIy5s8jKHfQeIE8UusTJVhqPwhEIlHCwWmxAtOi_RwG3rj17jEJeM8xm4zIMPm-3Wv08Qshqsc6uyUdDdclhHgRVsku_UDFg8H1QFu1HoWskaryoBuJW_R24sqwyLnfzfD8GSVKFiUGfeCIVlh1v-yNB1jREF5kHqlh4myalJ-FCjxb_vaKIj6O9BV3ndP7p3ocqds2gCrTWhWIeEAoHgg8CkcEQYExxpXL-hPF5PV9VOCL5qG_KNlTpdmDQmyG6y0L2mZlwUeaVe3sTKVvCEtqAN23fk_tnuH0K0Z9IsGHzXWwobFMbpYvhvDkLNbGgMyhDEdsS6IFWFpVOykXsTjc3xpDbmph1Q-lSCCraOLQiBHVd0p5Y_09N_HlPfn0S4Fd6hvV_jf56dkZyVLZWJtBs1Zn7jeYXeH9Rw_4EZA35Dk8veRkbKL6-rpXrcUbM3l6NFYxduOBZJouM-MJLUu1TRyHq1YllQhQbSqDUHtiVv_rZ1jSuhBTYxF-fqM7BC0hjUdXdhnDcssDuqrsrVq7]--></g></svg>