<svg xmlns="http://www.w3.org/2000/svg" xmlns:xlink="http://www.w3.org/1999/xlink" contentStyleType="text/css" data-diagram-type="STATE" height="679px" preserveAspectRatio="none" style="width:1126px;height:679px;background:#FFFFFF;" version="1.1" viewBox="0 0 1126 679" width="1126px" zoomAndPan="magnify"><defs/><g><ellipse cx="409" cy="16" fill="#222222" rx="10" ry="10" style="stroke:#222222;stroke-width:1;"/><g id="EnConstruction"><rect fill="#F1F1F1" height="64.2344" rx="12.5" ry="12.5" style="stroke:#181818;stroke-width:0.5;" width="157.4258" x="330.5" y="103"/><line style="stroke:#181818;stroke-width:0.5;" x1="330.5" x2="487.9258" y1="129.2969" y2="129.2969"/><text fill="#000000" font-family="sans-serif" font-size="14" lengthAdjust="spacing" textLength="106.8594" x="355.7832" y="120.9951">EnConstruction</text><text fill="#000000" font-family="sans-serif" font-size="12" lengthAdjust="spacing" textLength="120.6387" x="335.5" y="145.4355">entry : initChamps()</text><text fill="#000000" font-family="sans-serif" font-size="12" lengthAdjust="spacing" textLength="137.4258" x="335.5" y="159.4043">exit : validerDonnees()</text></g><g id="EnAttentePaiement"><rect fill="#F1F1F1" height="78.2031" rx="12.5" ry="12.5" style="stroke:#181818;stroke-width:0.5;" width="186.7109" x="315.5" y="244"/><line style="stroke:#181818;stroke-width:0.5;" x1="315.5" x2="502.2109" y1="270.2969" y2="270.2969"/><text fill="#000000" font-family="sans-serif" font-size="14" lengthAdjust="spacing" textLength="136.001" x="340.855" y="261.9951">EnAttentePaiement</text><text fill="#000000" font-family="sans-serif" font-size="12" lengthAdjust="spacing" textLength="130.3652" x="320.5" y="286.4355">entry : notifierClient()</text><text fill="#000000" font-family="sans-serif" font-size="12" lengthAdjust="spacing" textLength="144.3691" x="320.5" y="300.4043">do : attendrePaiement()</text><text fill="#000000" font-family="sans-serif" font-size="12" lengthAdjust="spacing" textLength="166.7109" x="320.5" y="314.373">exit : enregistrerPaiement()</text></g><g id="Confirm&#233;e"><rect fill="#F1F1F1" height="64.2344" rx="12.5" ry="12.5" style="stroke:#181818;stroke-width:0.5;" width="150.3242" x="7" y="399"/><line style="stroke:#181818;stroke-width:0.5;" x1="7" x2="157.3242" y1="425.2969" y2="425.2969"/><text fill="#000000" font-family="sans-serif" font-size="14" lengthAdjust="spacing" textLength="72.6523" x="45.8359" y="416.9951">Confirm&#233;e</text><text fill="#000000" font-family="sans-serif" font-size="12" lengthAdjust="spacing" textLength="130.3242" x="12" y="441.4355">entry : genererBillet()</text><text fill="#000000" font-family="sans-serif" font-size="12" lengthAdjust="spacing" textLength="90.3926" x="12" y="455.4043">exit : cloturer()</text></g><g id="Annul&#233;e"><rect fill="#F1F1F1" height="64.2344" rx="12.5" ry="12.5" style="stroke:#181818;stroke-width:0.5;" width="180.3242" x="319" y="399"/><line style="stroke:#181818;stroke-width:0.5;" x1="319" x2="499.3242" y1="425.2969" y2="425.2969"/><text fill="#000000" font-family="sans-serif" font-size="14" lengthAdjust="spacing" textLength="57.3125" x="380.5059" y="416.9951">Annul&#233;e</text><text fill="#000000" font-family="sans-serif" font-size="12" lengthAdjust="spacing" textLength="160.3242" x="324" y="441.4355">entry : notifierAnnulation()</text><text fill="#000000" font-family="sans-serif" font-size="12" lengthAdjust="spacing" textLength="92.8008" x="324" y="455.4043">exit : archiver()</text></g><g id="Expir&#233;e"><rect fill="#F1F1F1" height="64.2344" rx="12.5" ry="12.5" style="stroke:#181818;stroke-width:0.5;" width="176.5332" x="687.5" y="399"/><line style="stroke:#181818;stroke-width:0.5;" x1="687.5" x2="864.0332" y1="425.2969" y2="425.2969"/><text fill="#000000" font-family="sans-serif" font-size="14" lengthAdjust="spacing" textLength="52.8896" x="749.3218" y="416.9951">Expir&#233;e</text><text fill="#000000" font-family="sans-serif" font-size="12" lengthAdjust="spacing" textLength="156.5332" x="692.5" y="441.4355">entry : notifierExpiration()</text><text fill="#000000" font-family="sans-serif" font-size="12" lengthAdjust="spacing" textLength="94.7168" x="692.5" y="455.4043">exit : nettoyer()</text></g><g id="EnDestruction"><rect fill="#F1F1F1" height="50.2656" rx="12.5" ry="12.5" style="stroke:#181818;stroke-width:0.5;" width="142.4844" x="338" y="540"/><line style="stroke:#181818;stroke-width:0.5;" x1="338" x2="480.4844" y1="566.2969" y2="566.2969"/><text fill="#000000" font-family="sans-serif" font-size="14" lengthAdjust="spacing" textLength="99.0391" x="359.7227" y="557.9951">EnDestruction</text><text fill="#000000" font-family="sans-serif" font-size="12" lengthAdjust="spacing" textLength="122.4844" x="343" y="582.4355">entry : destructeur()</text></g><ellipse cx="409" cy="662" fill="transparent" rx="11" ry="11" style="stroke:#222222;stroke-width:1;"/><ellipse cx="409" cy="662" fill="#222222" rx="6" ry="6" style="stroke:#222222;stroke-width:1;"/><!--link *start* to EnConstruction--><g id="link_*start*_EnConstruction"><path d="M409,26.18 C409,42.5 409,71.27 409,96.93 " fill="transparent" id="*start*-to-EnConstruction" style="stroke:#181818;stroke-width:1;"/><polygon fill="#181818" points="409,102.93,413,93.93,409,97.93,405,93.93,409,102.93" style="stroke:#181818;stroke-width:1;"/><text fill="#000000" font-family="sans-serif" font-size="13" lengthAdjust="spacing" textLength="171.8438" x="410" y="69.0669">initier / creerReservation()</text></g><!--link EnConstruction to EnAttentePaiement--><g id="link_EnConstruction_EnAttentePaiement"><path d="M409,167.32 C409,189.78 409,214.14 409,237.99 " fill="transparent" id="EnConstruction-to-EnAttentePaiement" style="stroke:#181818;stroke-width:1;"/><polygon fill="#181818" points="409,243.99,413,234.99,409,238.99,405,234.99,409,243.99" style="stroke:#181818;stroke-width:1;"/><text fill="#000000" font-family="sans-serif" font-size="13" lengthAdjust="spacing" textLength="258.4639" x="410" y="210.0669">confirmerCreation / g&#233;n&#233;rerR&#233;f&#233;rence()</text></g><!--link EnAttentePaiement to Confirm?e--><g id="link_EnAttentePaiement_Confirm&#233;e"><path d="M315.18,288.19 C218.42,294.7 76.98,311.12 43,352 C31.48,365.85 35.4778,378.8968 46.9278,394.0168 " fill="transparent" id="EnAttentePaiement-to-Confirm&#233;e" style="stroke:#181818;stroke-width:1;"/><polygon fill="#181818" points="50.55,398.8,48.3055,389.2103,47.5315,394.814,41.9278,394.04,50.55,398.8" style="stroke:#181818;stroke-width:1;"/><text fill="#000000" font-family="sans-serif" font-size="13" lengthAdjust="spacing" textLength="353.4756" x="44" y="365.0669">paiementEffectue[montant &gt; 0] / validerReservation()</text></g><!--link EnAttentePaiement to Annul?e--><g id="link_EnAttentePaiement_Annul&#233;e"><path d="M406.68,322.08 C406.05,336.74 405.62,353.65 406,369 C406.24,378.75 406.3845,383.3778 406.8745,392.9878 " fill="transparent" id="EnAttentePaiement-to-Annul&#233;e" style="stroke:#181818;stroke-width:1;"/><polygon fill="#181818" points="407.18,398.98,410.7165,389.788,406.9254,393.9865,402.7269,390.1954,407.18,398.98" style="stroke:#181818;stroke-width:1;"/><text fill="#000000" font-family="sans-serif" font-size="13" lengthAdjust="spacing" textLength="362.959" x="407" y="365.0669">clientAnnule[statut == en_attente] / traiterAnnulation()</text></g><!--link EnAttentePaiement to Expir?e--><g id="link_EnAttentePaiement_Expir&#233;e"><path d="M502.81,288.42 C599.13,295.14 739.65,311.72 774,352 C784.81,364.68 786.4535,377.2275 784.4535,393.0275 " fill="transparent" id="EnAttentePaiement-to-Expir&#233;e" style="stroke:#181818;stroke-width:1;"/><polygon fill="#181818" points="783.7,398.98,788.7986,390.5536,784.3279,394.0196,780.8619,389.5489,783.7,398.98" style="stroke:#181818;stroke-width:1;"/><text fill="#000000" font-family="sans-serif" font-size="13" lengthAdjust="spacing" textLength="335.7466" x="783" y="365.0669">delaiDepasse[d&#233;lai &gt; 15min] / expirerReservation()</text></g><!--link Confirm?e to EnDestruction--><g id="link_Confirm&#233;e_EnDestruction"><path d="M115.1,463.37 C133.74,479.48 158.22,498.15 183,510 C232.04,533.45 286.1537,546.1815 332.0137,553.9215 " fill="transparent" id="Confirm&#233;e-to-EnDestruction" style="stroke:#181818;stroke-width:1;"/><polygon fill="#181818" points="337.93,554.92,329.7212,549.478,332.9997,554.0879,328.3898,557.3664,337.93,554.92" style="stroke:#181818;stroke-width:1;"/><text fill="#000000" font-family="sans-serif" font-size="13" lengthAdjust="spacing" textLength="216.0869" x="184" y="506.0669">supprimerReservation / destroy()</text></g><!--link Annul?e to EnDestruction--><g id="link_Annul&#233;e_EnDestruction"><path d="M409,463.28 C409,486.76 409,512.44 409,533.96 " fill="transparent" id="Annul&#233;e-to-EnDestruction" style="stroke:#181818;stroke-width:1;"/><polygon fill="#181818" points="409,539.96,413,530.96,409,534.96,405,530.96,409,539.96" style="stroke:#181818;stroke-width:1;"/><text fill="#000000" font-family="sans-serif" font-size="13" lengthAdjust="spacing" textLength="216.0869" x="410" y="506.0669">supprimerReservation / destroy()</text></g><!--link Expir?e to EnDestruction--><g id="link_Expir&#233;e_EnDestruction"><path d="M727.67,463.02 C701.16,478.92 667.21,497.51 635,510 C584.79,529.47 531.3799,542.1761 486.1199,550.9661 " fill="transparent" id="Expir&#233;e-to-EnDestruction" style="stroke:#181818;stroke-width:1;"/><polygon fill="#181818" points="480.23,552.11,489.8275,554.3208,485.1383,551.1568,488.3023,546.4675,480.23,552.11" style="stroke:#181818;stroke-width:1;"/><text fill="#000000" font-family="sans-serif" font-size="13" lengthAdjust="spacing" textLength="216.0869" x="673" y="506.0669">supprimerReservation / destroy()</text></g><!--link EnDestruction to *end*--><g id="link_EnDestruction_*end*"><path d="M409,590.46 C409,610.04 409,630.49 409,644.8 " fill="transparent" id="EnDestruction-to-*end*" style="stroke:#181818;stroke-width:1;"/><polygon fill="#181818" points="409,650.8,413,641.8,409,645.8,405,641.8,409,650.8" style="stroke:#181818;stroke-width:1;"/></g><!--SRC=[dL91ReD03Bpd5HpRI57RGo-L4YabkLUzegXQWKaiWHSP4oLFuXryh5wMH4j8UyW55djccF4wcU-YnM8LRIcsL0itgQ2bw2D2Ga7Ww2LA6O2_eGO-6jTyUfxD9d0WuVD0Ym-ch6g5JL4d57qTJO4PyCOI0THtzBoZjOZAmfT1AFMWnDHIZbm2nmoz5xMtxrhgMbQBNPkx0wNW9QVyYqkoWhccYmlKKkzq2iwiFemhPtoj_u4TWW4nx55p00U4EmmNCFPXkXQKMGsTRPv3AWqafIKnYbn5hpjDEOniV0ttTTT4JU5LqpvVNu2a5YEDHCkbslmndkYaXGqAS8_wNtbxgf2zSWQ5mGrKfguXoRfMlzJgstk9v3J18ITRCqfykOiz42Zq4ui2tBJ683_NjB3IACY91F5khtCK8SHv5SFf0OzU9OXogzAtheC8S5w5GCIUlKhWrQ_i1i9rhvkgOYn7Sz3XP0vapw77XzXNRm-nPxUConooeGeDzviGejoValdk5m00]--></g></svg>