<svg xmlns="http://www.w3.org/2000/svg" xmlns:xlink="http://www.w3.org/1999/xlink" contentStyleType="text/css" data-diagram-type="SEQUENCE" height="941px" preserveAspectRatio="none" style="width:1311px;height:941px;background:#FFFFFF;" version="1.1" viewBox="0 0 1311 941" width="1311px" zoomAndPan="magnify"><defs/><g><rect fill="transparent" height="249.8672" style="stroke:#000000;stroke-width:1.5;" width="1007.7695" x="10" y="185.6953"/><g><title>Client</title><rect fill="transparent" height="779.125" width="8" x="39.2651" y="81.2969"/><line style="stroke:#181818;stroke-width:0.5;stroke-dasharray:5.0,5.0;" x1="43" x2="43" y1="81.2969" y2="860.4219"/></g><g><title>InterfaceClient</title><rect fill="transparent" height="779.125" width="8" x="275.9307" y="81.2969"/><line style="stroke:#181818;stroke-width:0.5;stroke-dasharray:5.0,5.0;" x1="279.3262" x2="279.3262" y1="81.2969" y2="860.4219"/></g><g><title>ControleurReservation</title><rect fill="transparent" height="779.125" width="8" x="466.29" y="81.2969"/><line style="stroke:#181818;stroke-width:0.5;stroke-dasharray:5.0,5.0;" x1="469.3691" x2="469.3691" y1="81.2969" y2="860.4219"/></g><g><title>ServiceReservation</title><rect fill="transparent" height="779.125" width="8" x="740.4956" y="81.2969"/><line style="stroke:#181818;stroke-width:0.5;stroke-dasharray:5.0,5.0;" x1="743.7822" x2="743.7822" y1="81.2969" y2="860.4219"/></g><g><title>BaseDeDonn&#233;es</title><rect fill="transparent" height="779.125" width="8" x="939.2212" y="81.2969"/><line style="stroke:#181818;stroke-width:0.5;stroke-dasharray:5.0,5.0;" x1="942.6729" x2="942.6729" y1="81.2969" y2="860.4219"/></g><g><title>ServicePaiement</title><rect fill="transparent" height="779.125" width="8" x="1079.709" y="81.2969"/><line style="stroke:#181818;stroke-width:0.5;stroke-dasharray:5.0,5.0;" x1="1082.7695" x2="1082.7695" y1="81.2969" y2="860.4219"/></g><g><title>ServiceNotification</title><rect fill="transparent" height="779.125" width="8" x="1228.6836" y="81.2969"/><line style="stroke:#181818;stroke-width:0.5;stroke-dasharray:5.0,5.0;" x1="1232.6484" x2="1232.6484" y1="81.2969" y2="860.4219"/></g><text fill="#000000" font-family="sans-serif" font-size="14" lengthAdjust="spacing" textLength="40.5303" x="20" y="77.9951">Client</text><ellipse cx="43.2651" cy="13.5" fill="#E2E2F0" rx="8" ry="8" style="stroke:#181818;stroke-width:0.5;"/><path d="M43.2651,21.5 L43.2651,48.5 M30.2651,29.5 L56.2651,29.5 M43.2651,48.5 L30.2651,63.5 M43.2651,48.5 L56.2651,63.5 " fill="transparent" style="stroke:#181818;stroke-width:0.5;"/><text fill="#000000" font-family="sans-serif" font-size="14" lengthAdjust="spacing" textLength="40.5303" x="20" y="872.417">Client</text><ellipse cx="43.2651" cy="884.2188" fill="#E2E2F0" rx="8" ry="8" style="stroke:#181818;stroke-width:0.5;"/><path d="M43.2651,892.2188 L43.2651,919.2188 M30.2651,900.2188 L56.2651,900.2188 M43.2651,919.2188 L30.2651,934.2188 M43.2651,919.2188 L56.2651,934.2188 " fill="transparent" style="stroke:#181818;stroke-width:0.5;"/><rect fill="#E2E2F0" height="30.2969" rx="2.5" ry="2.5" style="stroke:#181818;stroke-width:0.5;" width="117.209" x="221.3262" y="50"/><text fill="#000000" font-family="sans-serif" font-size="14" lengthAdjust="spacing" textLength="103.209" x="228.3262" y="69.9951">InterfaceClient</text><rect fill="#E2E2F0" height="30.2969" rx="2.5" ry="2.5" style="stroke:#181818;stroke-width:0.5;" width="117.209" x="221.3262" y="859.4219"/><text fill="#000000" font-family="sans-serif" font-size="14" lengthAdjust="spacing" textLength="103.209" x="228.3262" y="879.417">InterfaceClient</text><rect fill="#E2E2F0" height="30.2969" rx="2.5" ry="2.5" style="stroke:#181818;stroke-width:0.5;" width="171.8418" x="384.3691" y="50"/><text fill="#000000" font-family="sans-serif" font-size="14" lengthAdjust="spacing" textLength="157.8418" x="391.3691" y="69.9951">ControleurReservation</text><rect fill="#E2E2F0" height="30.2969" rx="2.5" ry="2.5" style="stroke:#181818;stroke-width:0.5;" width="171.8418" x="384.3691" y="859.4219"/><text fill="#000000" font-family="sans-serif" font-size="14" lengthAdjust="spacing" textLength="157.8418" x="391.3691" y="879.417">ControleurReservation</text><rect fill="#E2E2F0" height="30.2969" rx="2.5" ry="2.5" style="stroke:#181818;stroke-width:0.5;" width="149.4268" x="669.7822" y="50"/><text fill="#000000" font-family="sans-serif" font-size="14" lengthAdjust="spacing" textLength="135.4268" x="676.7822" y="69.9951">ServiceReservation</text><rect fill="#E2E2F0" height="30.2969" rx="2.5" ry="2.5" style="stroke:#181818;stroke-width:0.5;" width="149.4268" x="669.7822" y="859.4219"/><text fill="#000000" font-family="sans-serif" font-size="14" lengthAdjust="spacing" textLength="135.4268" x="676.7822" y="879.417">ServiceReservation</text><rect fill="#E2E2F0" height="30.2969" rx="2.5" ry="2.5" style="stroke:#181818;stroke-width:0.5;" width="129.0967" x="878.6729" y="50"/><text fill="#000000" font-family="sans-serif" font-size="14" lengthAdjust="spacing" textLength="115.0967" x="885.6729" y="69.9951">BaseDeDonn&#233;es</text><rect fill="#E2E2F0" height="30.2969" rx="2.5" ry="2.5" style="stroke:#181818;stroke-width:0.5;" width="129.0967" x="878.6729" y="859.4219"/><text fill="#000000" font-family="sans-serif" font-size="14" lengthAdjust="spacing" textLength="115.0967" x="885.6729" y="879.417">BaseDeDonn&#233;es</text><rect fill="#E2E2F0" height="30.2969" rx="2.5" ry="2.5" style="stroke:#181818;stroke-width:0.5;" width="131.8789" x="1017.7695" y="50"/><text fill="#000000" font-family="sans-serif" font-size="14" lengthAdjust="spacing" textLength="117.8789" x="1024.7695" y="69.9951">ServicePaiement</text><rect fill="#E2E2F0" height="30.2969" rx="2.5" ry="2.5" style="stroke:#181818;stroke-width:0.5;" width="131.8789" x="1017.7695" y="859.4219"/><text fill="#000000" font-family="sans-serif" font-size="14" lengthAdjust="spacing" textLength="117.8789" x="1024.7695" y="879.417">ServicePaiement</text><rect fill="#E2E2F0" height="30.2969" rx="2.5" ry="2.5" style="stroke:#181818;stroke-width:0.5;" width="146.0703" x="1159.6484" y="50"/><text fill="#000000" font-family="sans-serif" font-size="14" lengthAdjust="spacing" textLength="132.0703" x="1166.6484" y="69.9951">ServiceNotification</text><rect fill="#E2E2F0" height="30.2969" rx="2.5" ry="2.5" style="stroke:#181818;stroke-width:0.5;" width="146.0703" x="1159.6484" y="859.4219"/><text fill="#000000" font-family="sans-serif" font-size="14" lengthAdjust="spacing" textLength="132.0703" x="1166.6484" y="879.417">ServiceNotification</text><polygon fill="#181818" points="267.9307,108.4297,277.9307,112.4297,267.9307,116.4297,271.9307,112.4297" style="stroke:#181818;stroke-width:1;"/><line style="stroke:#181818;stroke-width:1;" x1="43.2651" x2="273.9307" y1="112.4297" y2="112.4297"/><text fill="#000000" font-family="sans-serif" font-size="13" lengthAdjust="spacing" textLength="212.6655" x="50.2651" y="107.3638">s&#233;lectionner film, s&#233;ance, si&#232;ges</text><polygon fill="#181818" points="458.29,137.5625,468.29,141.5625,458.29,145.5625,462.29,141.5625" style="stroke:#181818;stroke-width:1;"/><line style="stroke:#181818;stroke-width:1;" x1="279.9307" x2="464.29" y1="141.5625" y2="141.5625"/><text fill="#000000" font-family="sans-serif" font-size="13" lengthAdjust="spacing" textLength="166.3594" x="286.9307" y="136.4966">envoyer infos r&#233;servation</text><polygon fill="#181818" points="732.4956,166.6953,742.4956,170.6953,732.4956,174.6953,736.4956,170.6953" style="stroke:#181818;stroke-width:1;"/><line style="stroke:#181818;stroke-width:1;" x1="470.29" x2="738.4956" y1="170.6953" y2="170.6953"/><text fill="#000000" font-family="sans-serif" font-size="13" lengthAdjust="spacing" textLength="250.2056" x="477.29" y="165.6294">cr&#233;erR&#233;servation(film, s&#233;ance, si&#232;ges)</text><path d="M10,185.6953 L74.4429,185.6953 L74.4429,192.8281 L64.4429,202.8281 L10,202.8281 L10,185.6953 " fill="#EEEEEE" style="stroke:#000000;stroke-width:1.5;"/><rect fill="transparent" height="249.8672" style="stroke:#000000;stroke-width:1.5;" width="1007.7695" x="10" y="185.6953"/><text fill="#000000" font-family="sans-serif" font-size="13" font-weight="bold" lengthAdjust="spacing" textLength="19.4429" x="25" y="198.7622">alt</text><text fill="#000000" font-family="sans-serif" font-size="11" font-weight="bold" lengthAdjust="spacing" textLength="88.6875" x="89.4429" y="197.9058">[V&#233;rifications]</text><polygon fill="#181818" points="931.2212,219.9609,941.2212,223.9609,931.2212,227.9609,935.2212,223.9609" style="stroke:#181818;stroke-width:1;"/><line style="stroke:#181818;stroke-width:1;" x1="744.4956" x2="937.2212" y1="223.9609" y2="223.9609"/><text fill="#000000" font-family="sans-serif" font-size="13" lengthAdjust="spacing" textLength="174.7256" x="751.4956" y="218.895">v&#233;rifier disponibilit&#233; si&#232;ges</text><polygon fill="#181818" points="755.4956,249.0938,745.4956,253.0938,755.4956,257.0938,751.4956,253.0938" style="stroke:#181818;stroke-width:1;"/><line style="stroke:#181818;stroke-width:1;stroke-dasharray:2.0,2.0;" x1="749.4956" x2="942.2212" y1="253.0938" y2="253.0938"/><text fill="#000000" font-family="sans-serif" font-size="13" lengthAdjust="spacing" textLength="101.7656" x="761.4956" y="248.0278">disponibilit&#233; OK</text><polygon fill="#181818" points="931.2212,278.2266,941.2212,282.2266,931.2212,286.2266,935.2212,282.2266" style="stroke:#181818;stroke-width:1;"/><line style="stroke:#181818;stroke-width:1;" x1="744.4956" x2="937.2212" y1="282.2266" y2="282.2266"/><text fill="#000000" font-family="sans-serif" font-size="13" lengthAdjust="spacing" textLength="148.4082" x="751.4956" y="277.1606">v&#233;rifier validit&#233; s&#233;ance</text><polygon fill="#181818" points="755.4956,307.3594,745.4956,311.3594,755.4956,315.3594,751.4956,311.3594" style="stroke:#181818;stroke-width:1;"/><line style="stroke:#181818;stroke-width:1;stroke-dasharray:2.0,2.0;" x1="749.4956" x2="942.2212" y1="311.3594" y2="311.3594"/><text fill="#000000" font-family="sans-serif" font-size="13" lengthAdjust="spacing" textLength="95.2402" x="761.4956" y="306.2935">s&#233;ance &#224; venir</text><line style="stroke:#000000;stroke-width:1;stroke-dasharray:2.0,2.0;" x1="10" x2="1017.7695" y1="320.3594" y2="320.3594"/><text fill="#000000" font-family="sans-serif" font-size="11" font-weight="bold" lengthAdjust="spacing" textLength="181.3174" x="15" y="330.5698">[Pr&#233;condition non respect&#233;e]</text><polygon fill="#181818" points="481.29,351.2969,471.29,355.2969,481.29,359.2969,477.29,355.2969" style="stroke:#181818;stroke-width:1;"/><line style="stroke:#181818;stroke-width:1;stroke-dasharray:2.0,2.0;" x1="475.29" x2="743.4956" y1="355.2969" y2="355.2969"/><text fill="#000000" font-family="sans-serif" font-size="13" lengthAdjust="spacing" textLength="118.4219" x="487.29" y="350.231">erreur r&#233;servation</text><polygon fill="#181818" points="290.9307,380.4297,280.9307,384.4297,290.9307,388.4297,286.9307,384.4297" style="stroke:#181818;stroke-width:1;"/><line style="stroke:#181818;stroke-width:1;stroke-dasharray:2.0,2.0;" x1="284.9307" x2="469.29" y1="384.4297" y2="384.4297"/><text fill="#000000" font-family="sans-serif" font-size="13" lengthAdjust="spacing" textLength="93.8628" x="296.9307" y="379.3638">afficher erreur</text><polygon fill="#181818" points="54.2651,409.5625,44.2651,413.5625,54.2651,417.5625,50.2651,413.5625" style="stroke:#181818;stroke-width:1;"/><line style="stroke:#181818;stroke-width:1;stroke-dasharray:2.0,2.0;" x1="48.2651" x2="278.9307" y1="413.5625" y2="413.5625"/><text fill="#000000" font-family="sans-serif" font-size="13" lengthAdjust="spacing" textLength="112.9121" x="60.2651" y="408.4966">message d'&#233;chec</text><polygon fill="#181818" points="267.9307,423.5625,277.9307,427.5625,267.9307,431.5625,271.9307,427.5625" style="stroke:#181818;stroke-width:1;"/><line style="stroke:#181818;stroke-width:1;stroke-dasharray:2.0,2.0;" x1="43.2651" x2="273.9307" y1="427.5625" y2="427.5625"/><polygon fill="#181818" points="931.2212,459.6953,941.2212,463.6953,931.2212,467.6953,935.2212,463.6953" style="stroke:#181818;stroke-width:1;"/><line style="stroke:#181818;stroke-width:1;" x1="744.4956" x2="937.2212" y1="463.6953" y2="463.6953"/><text fill="#000000" font-family="sans-serif" font-size="13" lengthAdjust="spacing" textLength="150.1538" x="751.4956" y="458.6294">enregistrer r&#233;servation</text><polygon fill="#181818" points="755.4956,488.8281,745.4956,492.8281,755.4956,496.8281,751.4956,492.8281" style="stroke:#181818;stroke-width:1;"/><line style="stroke:#181818;stroke-width:1;stroke-dasharray:2.0,2.0;" x1="749.4956" x2="942.2212" y1="492.8281" y2="492.8281"/><text fill="#000000" font-family="sans-serif" font-size="13" lengthAdjust="spacing" textLength="152.8071" x="761.4956" y="487.7622">r&#233;servation enregistr&#233;e</text><polygon fill="#181818" points="931.2212,517.9609,941.2212,521.9609,931.2212,525.9609,935.2212,521.9609" style="stroke:#181818;stroke-width:1;"/><line style="stroke:#181818;stroke-width:1;" x1="744.4956" x2="937.2212" y1="521.9609" y2="521.9609"/><text fill="#000000" font-family="sans-serif" font-size="13" lengthAdjust="spacing" textLength="161.4019" x="751.4956" y="516.895">marquer si&#232;ges r&#233;serv&#233;s</text><polygon fill="#181818" points="755.4956,547.0938,745.4956,551.0938,755.4956,555.0938,751.4956,551.0938" style="stroke:#181818;stroke-width:1;"/><line style="stroke:#181818;stroke-width:1;stroke-dasharray:2.0,2.0;" x1="749.4956" x2="942.2212" y1="551.0938" y2="551.0938"/><text fill="#000000" font-family="sans-serif" font-size="13" lengthAdjust="spacing" textLength="82.4053" x="761.4956" y="546.0278">confirmation</text><polygon fill="#181818" points="931.2212,576.2266,941.2212,580.2266,931.2212,584.2266,935.2212,580.2266" style="stroke:#181818;stroke-width:1;"/><line style="stroke:#181818;stroke-width:1;" x1="744.4956" x2="937.2212" y1="580.2266" y2="580.2266"/><text fill="#000000" font-family="sans-serif" font-size="13" lengthAdjust="spacing" textLength="94.2627" x="751.4956" y="575.1606">g&#233;n&#233;rer billets</text><polygon fill="#181818" points="755.4956,605.3594,745.4956,609.3594,755.4956,613.3594,751.4956,609.3594" style="stroke:#181818;stroke-width:1;"/><line style="stroke:#181818;stroke-width:1;stroke-dasharray:2.0,2.0;" x1="749.4956" x2="942.2212" y1="609.3594" y2="609.3594"/><text fill="#000000" font-family="sans-serif" font-size="13" lengthAdjust="spacing" textLength="95.6909" x="761.4956" y="604.2935">billets g&#233;n&#233;r&#233;s</text><polygon fill="#181818" points="1071.709,634.4922,1081.709,638.4922,1071.709,642.4922,1075.709,638.4922" style="stroke:#181818;stroke-width:1;"/><line style="stroke:#181818;stroke-width:1;" x1="744.4956" x2="1077.709" y1="638.4922" y2="638.4922"/><text fill="#000000" font-family="sans-serif" font-size="13" lengthAdjust="spacing" textLength="103.4731" x="751.4956" y="633.4263">initier paiement</text><polygon fill="#181818" points="755.4956,663.625,745.4956,667.625,755.4956,671.625,751.4956,667.625" style="stroke:#181818;stroke-width:1;"/><line style="stroke:#181818;stroke-width:1;stroke-dasharray:2.0,2.0;" x1="749.4956" x2="1082.709" y1="667.625" y2="667.625"/><text fill="#000000" font-family="sans-serif" font-size="13" lengthAdjust="spacing" textLength="100.9214" x="761.4956" y="662.5591">paiement lanc&#233;</text><polygon fill="#181818" points="1220.6836,692.7578,1230.6836,696.7578,1220.6836,700.7578,1224.6836,696.7578" style="stroke:#181818;stroke-width:1;"/><line style="stroke:#181818;stroke-width:1;" x1="744.4956" x2="1226.6836" y1="696.7578" y2="696.7578"/><text fill="#000000" font-family="sans-serif" font-size="13" lengthAdjust="spacing" textLength="111.0713" x="751.4956" y="691.6919">cr&#233;er notification</text><polygon fill="#181818" points="954.2212,721.8906,944.2212,725.8906,954.2212,729.8906,950.2212,725.8906" style="stroke:#181818;stroke-width:1;"/><line style="stroke:#181818;stroke-width:1;" x1="948.2212" x2="1231.6836" y1="725.8906" y2="725.8906"/><text fill="#000000" font-family="sans-serif" font-size="13" lengthAdjust="spacing" textLength="103.5049" x="960.2212" y="720.8247">r&#233;cup&#233;rer client</text><polygon fill="#181818" points="1220.6836,751.0234,1230.6836,755.0234,1220.6836,759.0234,1224.6836,755.0234" style="stroke:#181818;stroke-width:1;"/><line style="stroke:#181818;stroke-width:1;stroke-dasharray:2.0,2.0;" x1="943.2212" x2="1226.6836" y1="755.0234" y2="755.0234"/><text fill="#000000" font-family="sans-serif" font-size="13" lengthAdjust="spacing" textLength="70.9922" x="950.2212" y="749.9575">infos client</text><polygon fill="#181818" points="54.2651,780.1563,44.2651,784.1563,54.2651,788.1563,50.2651,784.1563" style="stroke:#181818;stroke-width:1;"/><line style="stroke:#181818;stroke-width:1;" x1="48.2651" x2="1231.6836" y1="784.1563" y2="784.1563"/><text fill="#000000" font-family="sans-serif" font-size="13" lengthAdjust="spacing" textLength="130.1587" x="60.2651" y="779.0903">envoyer notification</text><polygon fill="#181818" points="290.9307,809.2891,280.9307,813.2891,290.9307,817.2891,286.9307,813.2891" style="stroke:#181818;stroke-width:1;"/><line style="stroke:#181818;stroke-width:1;stroke-dasharray:2.0,2.0;" x1="284.9307" x2="469.29" y1="813.2891" y2="813.2891"/><text fill="#000000" font-family="sans-serif" font-size="13" lengthAdjust="spacing" textLength="88.188" x="296.9307" y="808.2231">retour succ&#232;s</text><polygon fill="#181818" points="54.2651,838.4219,44.2651,842.4219,54.2651,846.4219,50.2651,842.4219" style="stroke:#181818;stroke-width:1;"/><line style="stroke:#181818;stroke-width:1;stroke-dasharray:2.0,2.0;" x1="48.2651" x2="278.9307" y1="842.4219" y2="842.4219"/><text fill="#000000" font-family="sans-serif" font-size="13" lengthAdjust="spacing" textLength="143.6855" x="60.2651" y="837.356">r&#233;servation confirm&#233;e</text><!--SRC=[dLHDRjKm4Dxx5Du14hq02nQq6uG4LP7O6x_9wqZEE8oTIDo6PNCENunnaxmchWDfdvIdA9xlPtuynaRF-jeXK5IgCnpHOcSewiyKWHjZOJvSdrrxYkmTz7m70NWm4Jrj8hxBLxImT_p91BY16q-KHWWrvAr1Q4lT-UohZzYWdMZLv4zVVImjwmywfD61pN44h1jqxVlypP05US7qS1Rr4YPCrGI53sZmluK9gV51SngVqgj3XEjvAOJ82XRuRaNmjkxkdLB6HVqZZNp9EIWjlmglg6qhAqh3X1JJ9moT9_o93cCQB-bdhW9rjMUxeFZsvNLE1kFmD9cOqdsHYHcZqnyz024hS07qhLJKUXBQ74NoC8HEcYzakox_rMfc-RRjSQRPwNDr_4mZBRkNX2UoH_opQSiU5a0B8PWpwDCRIUOUx2E28VPC2kYarC5I0p6SCKI68eEZDLw3djXoAOzQQ0t_waL-7hE5KVuFcv1sDiZjVCyFwfxJAAyvSPbI1_6ut1o_C6IdEwB5ZX8iaioTQ7RBsYf3TbKNX7Oor6dyZ-HwzLtMY4pxQY7M8ck5olUbxwPIsMd7xrUgq9tstupQ4RmCzR8qQRksNt2Fv0PukOkXjpOzL1RsMcqpkVC4IJP_0G00]--></g></svg>