<svg xmlns="http://www.w3.org/2000/svg" xmlns:xlink="http://www.w3.org/1999/xlink" contentStyleType="text/css" data-diagram-type="SEQUENCE" height="1173px" preserveAspectRatio="none" style="width:1767px;height:1173px;background:#FFFFFF;" version="1.1" viewBox="0 0 1767 1173" width="1767px" zoomAndPan="magnify"><defs/><g><rect fill="transparent" height="249.8672" style="stroke:#000000;stroke-width:1.5;" width="948.5332" x="525" y="417.5547"/><g><title>Client</title><rect fill="transparent" height="1010.9844" width="8" x="554.2651" y="81.2969"/><line style="stroke:#181818;stroke-width:0.5;stroke-dasharray:5.0,5.0;" x1="558" x2="558" y1="81.2969" y2="1092.2813"/></g><g><title>InterfaceClient</title><rect fill="transparent" height="1010.9844" width="8" x="790.9307" y="81.2969"/><line style="stroke:#181818;stroke-width:0.5;stroke-dasharray:5.0,5.0;" x1="794.3262" x2="794.3262" y1="81.2969" y2="1092.2813"/></g><g><title>ControleurReservation</title><rect fill="transparent" height="1010.9844" width="8" x="981.29" y="81.2969"/><line style="stroke:#181818;stroke-width:0.5;stroke-dasharray:5.0,5.0;" x1="984.3691" x2="984.3691" y1="81.2969" y2="1092.2813"/></g><g><title>ServiceReservation</title><rect fill="transparent" height="1010.9844" width="8" x="1196.2593" y="81.2969"/><line style="stroke:#181818;stroke-width:0.5;stroke-dasharray:5.0,5.0;" x1="1199.5459" x2="1199.5459" y1="81.2969" y2="1092.2813"/></g><g><title>BaseDeDonn&#233;es</title><rect fill="transparent" height="1010.9844" width="8" x="1394.9849" y="81.2969"/><line style="stroke:#181818;stroke-width:0.5;stroke-dasharray:5.0,5.0;" x1="1398.4365" x2="1398.4365" y1="81.2969" y2="1092.2813"/></g><g><title>ServicePaiement</title><rect fill="transparent" height="1010.9844" width="8" x="1535.4727" y="81.2969"/><line style="stroke:#181818;stroke-width:0.5;stroke-dasharray:5.0,5.0;" x1="1538.5332" x2="1538.5332" y1="81.2969" y2="1092.2813"/></g><g><title>ServiceNotification</title><rect fill="transparent" height="1010.9844" width="8" x="1684.4473" y="81.2969"/><line style="stroke:#181818;stroke-width:0.5;stroke-dasharray:5.0,5.0;" x1="1688.4121" x2="1688.4121" y1="81.2969" y2="1092.2813"/></g><text fill="#000000" font-family="sans-serif" font-size="14" lengthAdjust="spacing" textLength="40.5303" x="535" y="77.9951">Client</text><ellipse cx="558.2651" cy="13.5" fill="#E2E2F0" rx="8" ry="8" style="stroke:#181818;stroke-width:0.5;"/><path d="M558.2651,21.5 L558.2651,48.5 M545.2651,29.5 L571.2651,29.5 M558.2651,48.5 L545.2651,63.5 M558.2651,48.5 L571.2651,63.5 " fill="transparent" style="stroke:#181818;stroke-width:0.5;"/><text fill="#000000" font-family="sans-serif" font-size="14" lengthAdjust="spacing" textLength="40.5303" x="535" y="1104.2764">Client</text><ellipse cx="558.2651" cy="1116.0781" fill="#E2E2F0" rx="8" ry="8" style="stroke:#181818;stroke-width:0.5;"/><path d="M558.2651,1124.0781 L558.2651,1151.0781 M545.2651,1132.0781 L571.2651,1132.0781 M558.2651,1151.0781 L545.2651,1166.0781 M558.2651,1151.0781 L571.2651,1166.0781 " fill="transparent" style="stroke:#181818;stroke-width:0.5;"/><rect fill="#E2E2F0" height="30.2969" rx="2.5" ry="2.5" style="stroke:#181818;stroke-width:0.5;" width="117.209" x="736.3262" y="50"/><text fill="#000000" font-family="sans-serif" font-size="14" lengthAdjust="spacing" textLength="103.209" x="743.3262" y="69.9951">InterfaceClient</text><rect fill="#E2E2F0" height="30.2969" rx="2.5" ry="2.5" style="stroke:#181818;stroke-width:0.5;" width="117.209" x="736.3262" y="1091.2813"/><text fill="#000000" font-family="sans-serif" font-size="14" lengthAdjust="spacing" textLength="103.209" x="743.3262" y="1111.2764">InterfaceClient</text><rect fill="#E2E2F0" height="30.2969" rx="2.5" ry="2.5" style="stroke:#181818;stroke-width:0.5;" width="171.8418" x="899.3691" y="50"/><text fill="#000000" font-family="sans-serif" font-size="14" lengthAdjust="spacing" textLength="157.8418" x="906.3691" y="69.9951">ControleurReservation</text><rect fill="#E2E2F0" height="30.2969" rx="2.5" ry="2.5" style="stroke:#181818;stroke-width:0.5;" width="171.8418" x="899.3691" y="1091.2813"/><text fill="#000000" font-family="sans-serif" font-size="14" lengthAdjust="spacing" textLength="157.8418" x="906.3691" y="1111.2764">ControleurReservation</text><rect fill="#E2E2F0" height="30.2969" rx="2.5" ry="2.5" style="stroke:#181818;stroke-width:0.5;" width="149.4268" x="1125.5459" y="50"/><text fill="#000000" font-family="sans-serif" font-size="14" lengthAdjust="spacing" textLength="135.4268" x="1132.5459" y="69.9951">ServiceReservation</text><rect fill="#E2E2F0" height="30.2969" rx="2.5" ry="2.5" style="stroke:#181818;stroke-width:0.5;" width="149.4268" x="1125.5459" y="1091.2813"/><text fill="#000000" font-family="sans-serif" font-size="14" lengthAdjust="spacing" textLength="135.4268" x="1132.5459" y="1111.2764">ServiceReservation</text><rect fill="#E2E2F0" height="30.2969" rx="2.5" ry="2.5" style="stroke:#181818;stroke-width:0.5;" width="129.0967" x="1334.4365" y="50"/><text fill="#000000" font-family="sans-serif" font-size="14" lengthAdjust="spacing" textLength="115.0967" x="1341.4365" y="69.9951">BaseDeDonn&#233;es</text><rect fill="#E2E2F0" height="30.2969" rx="2.5" ry="2.5" style="stroke:#181818;stroke-width:0.5;" width="129.0967" x="1334.4365" y="1091.2813"/><text fill="#000000" font-family="sans-serif" font-size="14" lengthAdjust="spacing" textLength="115.0967" x="1341.4365" y="1111.2764">BaseDeDonn&#233;es</text><rect fill="#E2E2F0" height="30.2969" rx="2.5" ry="2.5" style="stroke:#181818;stroke-width:0.5;" width="131.8789" x="1473.5332" y="50"/><text fill="#000000" font-family="sans-serif" font-size="14" lengthAdjust="spacing" textLength="117.8789" x="1480.5332" y="69.9951">ServicePaiement</text><rect fill="#E2E2F0" height="30.2969" rx="2.5" ry="2.5" style="stroke:#181818;stroke-width:0.5;" width="131.8789" x="1473.5332" y="1091.2813"/><text fill="#000000" font-family="sans-serif" font-size="14" lengthAdjust="spacing" textLength="117.8789" x="1480.5332" y="1111.2764">ServicePaiement</text><rect fill="#E2E2F0" height="30.2969" rx="2.5" ry="2.5" style="stroke:#181818;stroke-width:0.5;" width="146.0703" x="1615.4121" y="50"/><text fill="#000000" font-family="sans-serif" font-size="14" lengthAdjust="spacing" textLength="132.0703" x="1622.4121" y="69.9951">ServiceNotification</text><rect fill="#E2E2F0" height="30.2969" rx="2.5" ry="2.5" style="stroke:#181818;stroke-width:0.5;" width="146.0703" x="1615.4121" y="1091.2813"/><text fill="#000000" font-family="sans-serif" font-size="14" lengthAdjust="spacing" textLength="132.0703" x="1622.4121" y="1111.2764">ServiceNotification</text><path d="M5,96.2969 L5,317.2969 L553,317.2969 L553,106.2969 L543,96.2969 L5,96.2969 " fill="#FEFFDD" style="stroke:#181818;stroke-width:0.5;"/><path d="M543,96.2969 L543,106.2969 L553,106.2969 L543,96.2969 " fill="#FEFFDD" style="stroke:#181818;stroke-width:0.5;"/><text fill="#000000" font-family="sans-serif" font-size="13" lengthAdjust="spacing" textLength="399.8452" x="11" y="113.3638">r&#233;serverFilm(c:Client, f:Film, s:S&#233;ance, si&#232;ges:List&lt;Si&#232;ge&gt;) {</text><text fill="#000000" font-family="sans-serif" font-size="13" lengthAdjust="spacing" textLength="400.2832" x="19.2646" y="128.4966">s&#233;lection = c.s&#233;lectionnerFilmEtS&#233;ance();                          // 1</text><text fill="#000000" font-family="sans-serif" font-size="13" lengthAdjust="spacing" textLength="374.5498" x="19.2646" y="143.6294">r = new R&#233;servation(f, s, si&#232;ges);                                 // 2</text><text fill="#000000" font-family="sans-serif" font-size="13" lengthAdjust="spacing" textLength="437.1567" x="19.2646" y="158.7622">if (!BaseDeDonn&#233;es.siegesDisponibles(s, si&#232;ges)) return;           // 3</text><text fill="#000000" font-family="sans-serif" font-size="13" lengthAdjust="spacing" textLength="418.8564" x="19.2646" y="173.895">if (!BaseDeDonn&#233;es.seanceEstValide(s)) return;                     // 4</text><text fill="#000000" font-family="sans-serif" font-size="13" lengthAdjust="spacing" textLength="413.3213" x="19.2646" y="189.0278">BaseDeDonn&#233;es.enregistrerReservation(r);                           // 5</text><text fill="#000000" font-family="sans-serif" font-size="13" lengthAdjust="spacing" textLength="473.7827" x="19.2646" y="204.1606">BaseDeDonn&#233;es.marquerSiegesCommeReserves(s, si&#232;ges);               // 6</text><text fill="#000000" font-family="sans-serif" font-size="13" lengthAdjust="spacing" textLength="404.2568" x="19.2646" y="219.2935">billets = BaseDeDonn&#233;es.genererBillets(r);                         // 7</text><text fill="#000000" font-family="sans-serif" font-size="13" lengthAdjust="spacing" textLength="122.4463" x="19.2646" y="234.4263">r.setBillets(billets);</text><text fill="#000000" font-family="sans-serif" font-size="13" lengthAdjust="spacing" textLength="385.7852" x="19.2646" y="249.5591">ServicePaiement.initierPaiement(r);                                // 8</text><text fill="#000000" font-family="sans-serif" font-size="13" lengthAdjust="spacing" textLength="411.8105" x="19.2646" y="264.6919">infosClient = BaseDeDonn&#233;es.getClient(c.id);                       // 9</text><text fill="#000000" font-family="sans-serif" font-size="13" lengthAdjust="spacing" textLength="519.6699" x="19.2646" y="279.8247">ServiceNotification.creerNotification("R&#233;servation confirm&#233;e", infosClient); // 10</text><text fill="#000000" font-family="sans-serif" font-size="13" lengthAdjust="spacing" textLength="447.9668" x="19.2646" y="294.9575">InterfaceClient.afficherMessage("R&#233;servation confirm&#233;e !");       // 11</text><text fill="#000000" font-family="sans-serif" font-size="13" lengthAdjust="spacing" textLength="8.271" x="11" y="310.0903">}</text><polygon fill="#181818" points="782.9307,340.2891,792.9307,344.2891,782.9307,348.2891,786.9307,344.2891" style="stroke:#181818;stroke-width:1;"/><line style="stroke:#181818;stroke-width:1;" x1="558.2651" x2="788.9307" y1="344.2891" y2="344.2891"/><text fill="#000000" font-family="sans-serif" font-size="13" lengthAdjust="spacing" textLength="212.6655" x="565.2651" y="339.2231">s&#233;lectionner film, s&#233;ance, si&#232;ges</text><polygon fill="#181818" points="973.29,369.4219,983.29,373.4219,973.29,377.4219,977.29,373.4219" style="stroke:#181818;stroke-width:1;"/><line style="stroke:#181818;stroke-width:1;" x1="794.9307" x2="979.29" y1="373.4219" y2="373.4219"/><text fill="#000000" font-family="sans-serif" font-size="13" lengthAdjust="spacing" textLength="166.3594" x="801.9307" y="368.356">envoyer infos r&#233;servation</text><polygon fill="#181818" points="1188.2593,398.5547,1198.2593,402.5547,1188.2593,406.5547,1192.2593,402.5547" style="stroke:#181818;stroke-width:1;"/><line style="stroke:#181818;stroke-width:1;" x1="985.29" x2="1194.2593" y1="402.5547" y2="402.5547"/><text fill="#000000" font-family="sans-serif" font-size="13" lengthAdjust="spacing" textLength="190.9692" x="992.29" y="397.4888">cr&#233;erR&#233;servation(f, s, si&#232;ges)</text><path d="M525,417.5547 L589.4429,417.5547 L589.4429,424.6875 L579.4429,434.6875 L525,434.6875 L525,417.5547 " fill="#EEEEEE" style="stroke:#000000;stroke-width:1.5;"/><rect fill="transparent" height="249.8672" style="stroke:#000000;stroke-width:1.5;" width="948.5332" x="525" y="417.5547"/><text fill="#000000" font-family="sans-serif" font-size="13" font-weight="bold" lengthAdjust="spacing" textLength="19.4429" x="540" y="430.6216">alt</text><text fill="#000000" font-family="sans-serif" font-size="11" font-weight="bold" lengthAdjust="spacing" textLength="88.6875" x="604.4429" y="429.7651">[V&#233;rifications]</text><polygon fill="#181818" points="1386.9849,451.8203,1396.9849,455.8203,1386.9849,459.8203,1390.9849,455.8203" style="stroke:#181818;stroke-width:1;"/><line style="stroke:#181818;stroke-width:1;" x1="1200.2593" x2="1392.9849" y1="455.8203" y2="455.8203"/><text fill="#000000" font-family="sans-serif" font-size="13" lengthAdjust="spacing" textLength="174.7256" x="1207.2593" y="450.7544">v&#233;rifier disponibilit&#233; si&#232;ges</text><polygon fill="#181818" points="1211.2593,480.9531,1201.2593,484.9531,1211.2593,488.9531,1207.2593,484.9531" style="stroke:#181818;stroke-width:1;"/><line style="stroke:#181818;stroke-width:1;stroke-dasharray:2.0,2.0;" x1="1205.2593" x2="1397.9849" y1="484.9531" y2="484.9531"/><text fill="#000000" font-family="sans-serif" font-size="13" lengthAdjust="spacing" textLength="101.7656" x="1217.2593" y="479.8872">disponibilit&#233; OK</text><polygon fill="#181818" points="1386.9849,510.0859,1396.9849,514.0859,1386.9849,518.0859,1390.9849,514.0859" style="stroke:#181818;stroke-width:1;"/><line style="stroke:#181818;stroke-width:1;" x1="1200.2593" x2="1392.9849" y1="514.0859" y2="514.0859"/><text fill="#000000" font-family="sans-serif" font-size="13" lengthAdjust="spacing" textLength="148.4082" x="1207.2593" y="509.02">v&#233;rifier validit&#233; s&#233;ance</text><polygon fill="#181818" points="1211.2593,539.2188,1201.2593,543.2188,1211.2593,547.2188,1207.2593,543.2188" style="stroke:#181818;stroke-width:1;"/><line style="stroke:#181818;stroke-width:1;stroke-dasharray:2.0,2.0;" x1="1205.2593" x2="1397.9849" y1="543.2188" y2="543.2188"/><text fill="#000000" font-family="sans-serif" font-size="13" lengthAdjust="spacing" textLength="95.2402" x="1217.2593" y="538.1528">s&#233;ance &#224; venir</text><line style="stroke:#000000;stroke-width:1;stroke-dasharray:2.0,2.0;" x1="525" x2="1473.5332" y1="552.2188" y2="552.2188"/><text fill="#000000" font-family="sans-serif" font-size="11" font-weight="bold" lengthAdjust="spacing" textLength="181.3174" x="530" y="562.4292">[Pr&#233;condition non respect&#233;e]</text><polygon fill="#181818" points="996.29,583.1563,986.29,587.1563,996.29,591.1563,992.29,587.1563" style="stroke:#181818;stroke-width:1;"/><line style="stroke:#181818;stroke-width:1;stroke-dasharray:2.0,2.0;" x1="990.29" x2="1199.2593" y1="587.1563" y2="587.1563"/><text fill="#000000" font-family="sans-serif" font-size="13" lengthAdjust="spacing" textLength="118.4219" x="1002.29" y="582.0903">erreur r&#233;servation</text><polygon fill="#181818" points="805.9307,612.2891,795.9307,616.2891,805.9307,620.2891,801.9307,616.2891" style="stroke:#181818;stroke-width:1;"/><line style="stroke:#181818;stroke-width:1;stroke-dasharray:2.0,2.0;" x1="799.9307" x2="984.29" y1="616.2891" y2="616.2891"/><text fill="#000000" font-family="sans-serif" font-size="13" lengthAdjust="spacing" textLength="93.8628" x="811.9307" y="611.2231">afficher erreur</text><polygon fill="#181818" points="569.2651,641.4219,559.2651,645.4219,569.2651,649.4219,565.2651,645.4219" style="stroke:#181818;stroke-width:1;"/><line style="stroke:#181818;stroke-width:1;stroke-dasharray:2.0,2.0;" x1="563.2651" x2="793.9307" y1="645.4219" y2="645.4219"/><text fill="#000000" font-family="sans-serif" font-size="13" lengthAdjust="spacing" textLength="112.9121" x="575.2651" y="640.356">message d'&#233;chec</text><polygon fill="#181818" points="782.9307,655.4219,792.9307,659.4219,782.9307,663.4219,786.9307,659.4219" style="stroke:#181818;stroke-width:1;"/><line style="stroke:#181818;stroke-width:1;stroke-dasharray:2.0,2.0;" x1="558.2651" x2="788.9307" y1="659.4219" y2="659.4219"/><polygon fill="#181818" points="1386.9849,691.5547,1396.9849,695.5547,1386.9849,699.5547,1390.9849,695.5547" style="stroke:#181818;stroke-width:1;"/><line style="stroke:#181818;stroke-width:1;" x1="1200.2593" x2="1392.9849" y1="695.5547" y2="695.5547"/><text fill="#000000" font-family="sans-serif" font-size="13" lengthAdjust="spacing" textLength="150.1538" x="1207.2593" y="690.4888">enregistrer r&#233;servation</text><polygon fill="#181818" points="1211.2593,720.6875,1201.2593,724.6875,1211.2593,728.6875,1207.2593,724.6875" style="stroke:#181818;stroke-width:1;"/><line style="stroke:#181818;stroke-width:1;stroke-dasharray:2.0,2.0;" x1="1205.2593" x2="1397.9849" y1="724.6875" y2="724.6875"/><text fill="#000000" font-family="sans-serif" font-size="13" lengthAdjust="spacing" textLength="152.8071" x="1217.2593" y="719.6216">r&#233;servation enregistr&#233;e</text><polygon fill="#181818" points="1386.9849,749.8203,1396.9849,753.8203,1386.9849,757.8203,1390.9849,753.8203" style="stroke:#181818;stroke-width:1;"/><line style="stroke:#181818;stroke-width:1;" x1="1200.2593" x2="1392.9849" y1="753.8203" y2="753.8203"/><text fill="#000000" font-family="sans-serif" font-size="13" lengthAdjust="spacing" textLength="161.4019" x="1207.2593" y="748.7544">marquer si&#232;ges r&#233;serv&#233;s</text><polygon fill="#181818" points="1211.2593,778.9531,1201.2593,782.9531,1211.2593,786.9531,1207.2593,782.9531" style="stroke:#181818;stroke-width:1;"/><line style="stroke:#181818;stroke-width:1;stroke-dasharray:2.0,2.0;" x1="1205.2593" x2="1397.9849" y1="782.9531" y2="782.9531"/><text fill="#000000" font-family="sans-serif" font-size="13" lengthAdjust="spacing" textLength="82.4053" x="1217.2593" y="777.8872">confirmation</text><polygon fill="#181818" points="1386.9849,808.0859,1396.9849,812.0859,1386.9849,816.0859,1390.9849,812.0859" style="stroke:#181818;stroke-width:1;"/><line style="stroke:#181818;stroke-width:1;" x1="1200.2593" x2="1392.9849" y1="812.0859" y2="812.0859"/><text fill="#000000" font-family="sans-serif" font-size="13" lengthAdjust="spacing" textLength="94.2627" x="1207.2593" y="807.02">g&#233;n&#233;rer billets</text><polygon fill="#181818" points="1211.2593,837.2188,1201.2593,841.2188,1211.2593,845.2188,1207.2593,841.2188" style="stroke:#181818;stroke-width:1;"/><line style="stroke:#181818;stroke-width:1;stroke-dasharray:2.0,2.0;" x1="1205.2593" x2="1397.9849" y1="841.2188" y2="841.2188"/><text fill="#000000" font-family="sans-serif" font-size="13" lengthAdjust="spacing" textLength="95.6909" x="1217.2593" y="836.1528">billets g&#233;n&#233;r&#233;s</text><polygon fill="#181818" points="1527.4727,866.3516,1537.4727,870.3516,1527.4727,874.3516,1531.4727,870.3516" style="stroke:#181818;stroke-width:1;"/><line style="stroke:#181818;stroke-width:1;" x1="1200.2593" x2="1533.4727" y1="870.3516" y2="870.3516"/><text fill="#000000" font-family="sans-serif" font-size="13" lengthAdjust="spacing" textLength="103.4731" x="1207.2593" y="865.2856">initier paiement</text><polygon fill="#181818" points="1211.2593,895.4844,1201.2593,899.4844,1211.2593,903.4844,1207.2593,899.4844" style="stroke:#181818;stroke-width:1;"/><line style="stroke:#181818;stroke-width:1;stroke-dasharray:2.0,2.0;" x1="1205.2593" x2="1538.4727" y1="899.4844" y2="899.4844"/><text fill="#000000" font-family="sans-serif" font-size="13" lengthAdjust="spacing" textLength="100.9214" x="1217.2593" y="894.4185">paiement lanc&#233;</text><polygon fill="#181818" points="1676.4473,924.6172,1686.4473,928.6172,1676.4473,932.6172,1680.4473,928.6172" style="stroke:#181818;stroke-width:1;"/><line style="stroke:#181818;stroke-width:1;" x1="1200.2593" x2="1682.4473" y1="928.6172" y2="928.6172"/><text fill="#000000" font-family="sans-serif" font-size="13" lengthAdjust="spacing" textLength="111.0713" x="1207.2593" y="923.5513">cr&#233;er notification</text><polygon fill="#181818" points="1409.9849,953.75,1399.9849,957.75,1409.9849,961.75,1405.9849,957.75" style="stroke:#181818;stroke-width:1;"/><line style="stroke:#181818;stroke-width:1;" x1="1403.9849" x2="1687.4473" y1="957.75" y2="957.75"/><text fill="#000000" font-family="sans-serif" font-size="13" lengthAdjust="spacing" textLength="103.5049" x="1415.9849" y="952.6841">r&#233;cup&#233;rer client</text><polygon fill="#181818" points="1676.4473,982.8828,1686.4473,986.8828,1676.4473,990.8828,1680.4473,986.8828" style="stroke:#181818;stroke-width:1;"/><line style="stroke:#181818;stroke-width:1;stroke-dasharray:2.0,2.0;" x1="1398.9849" x2="1682.4473" y1="986.8828" y2="986.8828"/><text fill="#000000" font-family="sans-serif" font-size="13" lengthAdjust="spacing" textLength="70.9922" x="1405.9849" y="981.8169">infos client</text><polygon fill="#181818" points="569.2651,1012.0156,559.2651,1016.0156,569.2651,1020.0156,565.2651,1016.0156" style="stroke:#181818;stroke-width:1;"/><line style="stroke:#181818;stroke-width:1;" x1="563.2651" x2="1687.4473" y1="1016.0156" y2="1016.0156"/><text fill="#000000" font-family="sans-serif" font-size="13" lengthAdjust="spacing" textLength="130.1587" x="575.2651" y="1010.9497">envoyer notification</text><polygon fill="#181818" points="805.9307,1041.1484,795.9307,1045.1484,805.9307,1049.1484,801.9307,1045.1484" style="stroke:#181818;stroke-width:1;"/><line style="stroke:#181818;stroke-width:1;stroke-dasharray:2.0,2.0;" x1="799.9307" x2="984.29" y1="1045.1484" y2="1045.1484"/><text fill="#000000" font-family="sans-serif" font-size="13" lengthAdjust="spacing" textLength="88.188" x="811.9307" y="1040.0825">retour succ&#232;s</text><polygon fill="#181818" points="569.2651,1070.2813,559.2651,1074.2813,569.2651,1078.2813,565.2651,1074.2813" style="stroke:#181818;stroke-width:1;"/><line style="stroke:#181818;stroke-width:1;stroke-dasharray:2.0,2.0;" x1="563.2651" x2="793.9307" y1="1074.2813" y2="1074.2813"/><text fill="#000000" font-family="sans-serif" font-size="13" lengthAdjust="spacing" textLength="143.6855" x="575.2651" y="1069.2153">r&#233;servation confirm&#233;e</text><!--SRC=[dPRRRjim38RlzHHSR-O0RRhkl6JhHGy3XfsA1kYzgz2f05lEA2N3CEnTTba_XrziL2GdjcEdwGgaY2Nnuq-AP1nBcnESfmgr5M8UarLIpMDjuPEsI4aiCMpMzyvpRIbFSK7NQ92MiLMvRfoOyAgIsBTz5Xkym8jSwx90qsLv5IlCsdx3thVSgaH9ZnKwjmWf9XRof8g4oi8vHlgeqYoI8xzy2Cd8BHo26KtA8jOI-QigxsTeHb-KiUydguVJ0VmM0AOiKfJE2Nm0ETmyQi-zj04I3SRG-tTy32SC8sPe_0dNNjbAUvIm-xM2NP0DwpcpL0BHasOAXqOXCowKcUTQtQPeeXfv08HsGNhSPBteOw6BwjBOcpXLKuow0GtKIqQrAAW9PvnKmdgLHBGpJaQzsaPbCVrO84rMCPxdMHOAgndbU9lrcbctAatH6iv_Ypf3laYaCx-_KnYZthXBvDJOwdpW3iQyqIhQeTBAAgJg-O6WAnTltNte93U-NBiKMxyLoQ6QzZ8PzMuZgjujGqc8L5-93keL2JBNYQAClHqSrhMmBrV8pnZR6Wp3E67M7T9ND2QUOIyGdXoi5JlMYVWZK4_1zQyG8UIZqpOVHj3eF4Xy1xVwLxJDcDGvffY7Ufd_Oj8gFg2QND5jmgpjWSOWoRPStVqjBKISMhWf2redt0YNW0uSEsbUDpjOUalMEWsThL9bos8TjMErh8xwrBOGtp__dvAb6mfUXB-3Hua8Db3-XILgHG9JWt35YUHAOQmxfVb3QEPyvmphLRdhXebuhNcr3jDplPrLLzLrWAtijuhCQQWCCjy0C7tAmToXN5dukUaANOWzKrqRdCq8zirntMX3SwdSLq8Ok5MPLKJ-lxU8qFZXHtfFlxEouAyky31TztPNJVb0S4fxdBPcDTk6QGtpwfsZVQJNQsK1AHTrMJpWiZvtrzF3pR_DsqpNoQv4kNvPp7sgf7_dwSzKowyVUy6gn-6wgAjPsL0f7jD7t04vzw9PI5dUTypfkZVg_kdu1m00]--></g></svg>