<svg xmlns="http://www.w3.org/2000/svg" xmlns:xlink="http://www.w3.org/1999/xlink" contentStyleType="text/css" data-diagram-type="SEQUENCE" height="1451px" preserveAspectRatio="none" style="width:2061px;height:1451px;background:#FFFFFF;" version="1.1" viewBox="0 0 2061 1451" width="2061px" zoomAndPan="magnify"><defs/><g><rect fill="transparent" height="633.3984" style="stroke:#000000;stroke-width:1.5;" width="1657.9351" x="397" y="720.2109"/><rect fill="transparent" height="441.7969" style="stroke:#000000;stroke-width:1.5;" width="1637.9351" x="407" y="904.8125"/><rect fill="transparent" height="46.2656" style="stroke:#000000;stroke-width:1.5;" width="375.6055" x="1659.3296" y="1074.6094"/><g><title>Administrateur</title><rect fill="transparent" height="1289.3125" width="8" x="468.3018" y="81.2969"/><line style="stroke:#181818;stroke-width:0.5;stroke-dasharray:5.0,5.0;" x1="472" x2="472" y1="81.2969" y2="1370.6094"/></g><g><title>InterfaceAdmin</title><rect fill="transparent" height="1289.3125" width="8" x="866.0137" y="81.2969"/><line style="stroke:#181818;stroke-width:0.5;stroke-dasharray:5.0,5.0;" x1="869.2422" x2="869.2422" y1="81.2969" y2="1370.6094"/></g><g><title>Contr&#244;leurFilm</title><rect fill="transparent" height="1289.3125" width="8" x="1058.2583" y="81.2969"/><line style="stroke:#181818;stroke-width:0.5;stroke-dasharray:5.0,5.0;" x1="1061.4453" x2="1061.4453" y1="81.2969" y2="1370.6094"/></g><g><title>ServiceFilm</title><rect fill="transparent" height="1289.3125" width="8" x="1392.646" y="81.2969"/><line style="stroke:#181818;stroke-width:0.5;stroke-dasharray:5.0,5.0;" x1="1396.0405" x2="1396.0405" y1="81.2969" y2="1370.6094"/></g><g><title>BaseDeDonn&#233;es</title><rect fill="transparent" height="1289.3125" width="8" x="1590.7813" y="81.2969"/><line style="stroke:#181818;stroke-width:0.5;stroke-dasharray:5.0,5.0;" x1="1594.2329" x2="1594.2329" y1="81.2969" y2="1370.6094"/></g><g><title>ServiceNotification</title><rect fill="transparent" height="1289.3125" width="8" x="1738.3647" y="81.2969"/><line style="stroke:#181818;stroke-width:0.5;stroke-dasharray:5.0,5.0;" x1="1742.3296" x2="1742.3296" y1="81.2969" y2="1370.6094"/></g><g><title>BaseUtilisateurs</title><rect fill="transparent" height="1289.3125" width="8" x="1957.2378" y="81.2969"/><line style="stroke:#181818;stroke-width:0.5;stroke-dasharray:5.0,5.0;" x1="1960.5405" x2="1960.5405" y1="81.2969" y2="1370.6094"/></g><text fill="#000000" font-family="sans-serif" font-size="14" lengthAdjust="spacing" textLength="104.6035" x="417" y="77.9951">Administrateur</text><ellipse cx="472.3018" cy="13.5" fill="#E2E2F0" rx="8" ry="8" style="stroke:#181818;stroke-width:0.5;"/><path d="M472.3018,21.5 L472.3018,48.5 M459.3018,29.5 L485.3018,29.5 M472.3018,48.5 L459.3018,63.5 M472.3018,48.5 L485.3018,63.5 " fill="transparent" style="stroke:#181818;stroke-width:0.5;"/><text fill="#000000" font-family="sans-serif" font-size="14" lengthAdjust="spacing" textLength="104.6035" x="417" y="1382.6045">Administrateur</text><ellipse cx="472.3018" cy="1394.4063" fill="#E2E2F0" rx="8" ry="8" style="stroke:#181818;stroke-width:0.5;"/><path d="M472.3018,1402.4063 L472.3018,1429.4063 M459.3018,1410.4063 L485.3018,1410.4063 M472.3018,1429.4063 L459.3018,1444.4063 M472.3018,1429.4063 L485.3018,1444.4063 " fill="transparent" style="stroke:#181818;stroke-width:0.5;"/><rect fill="#E2E2F0" height="30.2969" rx="2.5" ry="2.5" style="stroke:#181818;stroke-width:0.5;" width="121.543" x="809.2422" y="50"/><text fill="#000000" font-family="sans-serif" font-size="14" lengthAdjust="spacing" textLength="107.543" x="816.2422" y="69.9951">InterfaceAdmin</text><rect fill="#E2E2F0" height="30.2969" rx="2.5" ry="2.5" style="stroke:#181818;stroke-width:0.5;" width="121.543" x="809.2422" y="1369.6094"/><text fill="#000000" font-family="sans-serif" font-size="14" lengthAdjust="spacing" textLength="107.543" x="816.2422" y="1389.6045">InterfaceAdmin</text><rect fill="#E2E2F0" height="30.2969" rx="2.5" ry="2.5" style="stroke:#181818;stroke-width:0.5;" width="117.626" x="1003.4453" y="50"/><text fill="#000000" font-family="sans-serif" font-size="14" lengthAdjust="spacing" textLength="103.626" x="1010.4453" y="69.9951">Contr&#244;leurFilm</text><rect fill="#E2E2F0" height="30.2969" rx="2.5" ry="2.5" style="stroke:#181818;stroke-width:0.5;" width="117.626" x="1003.4453" y="1369.6094"/><text fill="#000000" font-family="sans-serif" font-size="14" lengthAdjust="spacing" textLength="103.626" x="1010.4453" y="1389.6045">Contr&#244;leurFilm</text><rect fill="#E2E2F0" height="30.2969" rx="2.5" ry="2.5" style="stroke:#181818;stroke-width:0.5;" width="95.2109" x="1349.0405" y="50"/><text fill="#000000" font-family="sans-serif" font-size="14" lengthAdjust="spacing" textLength="81.2109" x="1356.0405" y="69.9951">ServiceFilm</text><rect fill="#E2E2F0" height="30.2969" rx="2.5" ry="2.5" style="stroke:#181818;stroke-width:0.5;" width="95.2109" x="1349.0405" y="1369.6094"/><text fill="#000000" font-family="sans-serif" font-size="14" lengthAdjust="spacing" textLength="81.2109" x="1356.0405" y="1389.6045">ServiceFilm</text><rect fill="#E2E2F0" height="30.2969" rx="2.5" ry="2.5" style="stroke:#181818;stroke-width:0.5;" width="129.0967" x="1530.2329" y="50"/><text fill="#000000" font-family="sans-serif" font-size="14" lengthAdjust="spacing" textLength="115.0967" x="1537.2329" y="69.9951">BaseDeDonn&#233;es</text><rect fill="#E2E2F0" height="30.2969" rx="2.5" ry="2.5" style="stroke:#181818;stroke-width:0.5;" width="129.0967" x="1530.2329" y="1369.6094"/><text fill="#000000" font-family="sans-serif" font-size="14" lengthAdjust="spacing" textLength="115.0967" x="1537.2329" y="1389.6045">BaseDeDonn&#233;es</text><rect fill="#E2E2F0" height="30.2969" rx="2.5" ry="2.5" style="stroke:#181818;stroke-width:0.5;" width="146.0703" x="1669.3296" y="50"/><text fill="#000000" font-family="sans-serif" font-size="14" lengthAdjust="spacing" textLength="132.0703" x="1676.3296" y="69.9951">ServiceNotification</text><rect fill="#E2E2F0" height="30.2969" rx="2.5" ry="2.5" style="stroke:#181818;stroke-width:0.5;" width="146.0703" x="1669.3296" y="1369.6094"/><text fill="#000000" font-family="sans-serif" font-size="14" lengthAdjust="spacing" textLength="132.0703" x="1676.3296" y="1389.6045">ServiceNotification</text><rect fill="#E2E2F0" height="30.2969" rx="2.5" ry="2.5" style="stroke:#181818;stroke-width:0.5;" width="127.3945" x="1897.5405" y="50"/><text fill="#000000" font-family="sans-serif" font-size="14" lengthAdjust="spacing" textLength="113.3945" x="1904.5405" y="69.9951">BaseUtilisateurs</text><rect fill="#E2E2F0" height="30.2969" rx="2.5" ry="2.5" style="stroke:#181818;stroke-width:0.5;" width="127.3945" x="1897.5405" y="1369.6094"/><text fill="#000000" font-family="sans-serif" font-size="14" lengthAdjust="spacing" textLength="113.3945" x="1904.5405" y="1389.6045">BaseUtilisateurs</text><path d="M5,96.2969 L5,620.2969 L467,620.2969 L467,106.2969 L457,96.2969 L5,96.2969 " fill="#FEFFDD" style="stroke:#181818;stroke-width:0.5;"/><path d="M457,96.2969 L457,106.2969 L467,106.2969 L457,96.2969 " fill="#FEFFDD" style="stroke:#181818;stroke-width:0.5;"/><text fill="#000000" font-family="sans-serif" font-size="13" lengthAdjust="spacing" textLength="282.9531" x="11" y="113.3638">ajouterFilm(admin:Administrateur, f:Film) {</text><text fill="#000000" font-family="sans-serif" font-size="13" lengthAdjust="spacing" textLength="344.0811" x="19.2646" y="128.4966">// 1. L&#8217;admin saisit les donn&#233;es du film via l&#8217;interface</text><text fill="#000000" font-family="sans-serif" font-size="13" lengthAdjust="spacing" textLength="155.2383" x="19.2646" y="143.6294">UI.saisirDonneesFilm(f);</text><text fill="#000000" font-family="sans-serif" font-size="13" lengthAdjust="spacing" textLength="4.1323" x="11" y="158.7622">&#160;</text><text fill="#000000" font-family="sans-serif" font-size="13" lengthAdjust="spacing" textLength="335.5942" x="19.2646" y="173.895">// 2. L&#8217;interface transmet les donn&#233;es au contr&#244;leur</text><text fill="#000000" font-family="sans-serif" font-size="13" lengthAdjust="spacing" textLength="167.9209" x="19.2646" y="189.0278">Controller.recevoirFilm(f);</text><text fill="#000000" font-family="sans-serif" font-size="13" lengthAdjust="spacing" textLength="4.1323" x="11" y="204.1606">&#160;</text><text fill="#000000" font-family="sans-serif" font-size="13" lengthAdjust="spacing" textLength="255.4551" x="19.2646" y="219.2935">// 3. Le service v&#233;rifie les pr&#233;conditions</text><text fill="#000000" font-family="sans-serif" font-size="13" lengthAdjust="spacing" textLength="205.1245" x="19.2646" y="234.4263">if (!Service.champsValides(f)) {</text><text fill="#000000" font-family="sans-serif" font-size="13" lengthAdjust="spacing" textLength="301.9897" x="27.5293" y="249.5591">Controller.signalerErreur("Champs invalides");</text><text fill="#000000" font-family="sans-serif" font-size="13" lengthAdjust="spacing" textLength="254.7441" x="27.5293" y="264.6919">UI.afficherMessage("&#201;chec ajout film");</text><text fill="#000000" font-family="sans-serif" font-size="13" lengthAdjust="spacing" textLength="44.6431" x="27.5293" y="279.8247">return;</text><text fill="#000000" font-family="sans-serif" font-size="13" lengthAdjust="spacing" textLength="8.271" x="19.2646" y="294.9575">}</text><text fill="#000000" font-family="sans-serif" font-size="13" lengthAdjust="spacing" textLength="4.1323" x="11" y="310.0903">&#160;</text><text fill="#000000" font-family="sans-serif" font-size="13" lengthAdjust="spacing" textLength="320.0806" x="19.2646" y="325.2231">// 4. Le service v&#233;rifie si le film existe d&#233;j&#224; (code)</text><text fill="#000000" font-family="sans-serif" font-size="13" lengthAdjust="spacing" textLength="174.6685" x="19.2646" y="340.356">if (DB.existeFilm(f.code)) {</text><text fill="#000000" font-family="sans-serif" font-size="13" lengthAdjust="spacing" textLength="303.0625" x="27.5293" y="355.4888">Controller.signalerErreur("Film d&#233;j&#224; existant");</text><text fill="#000000" font-family="sans-serif" font-size="13" lengthAdjust="spacing" textLength="251.3291" x="27.5293" y="370.6216">UI.afficherMessage("Film non ajout&#233;");</text><text fill="#000000" font-family="sans-serif" font-size="13" lengthAdjust="spacing" textLength="44.6431" x="27.5293" y="385.7544">return;</text><text fill="#000000" font-family="sans-serif" font-size="13" lengthAdjust="spacing" textLength="8.271" x="19.2646" y="400.8872">}</text><text fill="#000000" font-family="sans-serif" font-size="13" lengthAdjust="spacing" textLength="4.1323" x="11" y="416.02">&#160;</text><text fill="#000000" font-family="sans-serif" font-size="13" lengthAdjust="spacing" textLength="271.1973" x="19.2646" y="431.1528">// 5. Insertion du film en base de donn&#233;es</text><text fill="#000000" font-family="sans-serif" font-size="13" lengthAdjust="spacing" textLength="114.8354" x="19.2646" y="446.2856">DB.insererFilm(f);</text><text fill="#000000" font-family="sans-serif" font-size="13" lengthAdjust="spacing" textLength="4.1323" x="11" y="461.4185">&#160;</text><text fill="#000000" font-family="sans-serif" font-size="13" lengthAdjust="spacing" textLength="245.9653" x="19.2646" y="476.5513">// 6. Cr&#233;ation et envoi de notifications</text><text fill="#000000" font-family="sans-serif" font-size="13" lengthAdjust="spacing" textLength="260.0825" x="19.2646" y="491.6841">utilisateurs = UsersDB.recupererTous();</text><text fill="#000000" font-family="sans-serif" font-size="13" lengthAdjust="spacing" textLength="137.8013" x="19.2646" y="506.8169">for (u : utilisateurs) {</text><text fill="#000000" font-family="sans-serif" font-size="13" lengthAdjust="spacing" textLength="425.4009" x="27.5293" y="521.9497">Notification.enregistrerNotification(u, "Nouveau film disponible");</text><text fill="#000000" font-family="sans-serif" font-size="13" lengthAdjust="spacing" textLength="8.271" x="19.2646" y="537.0825">}</text><text fill="#000000" font-family="sans-serif" font-size="13" lengthAdjust="spacing" textLength="4.1323" x="11" y="552.2153">&#160;</text><text fill="#000000" font-family="sans-serif" font-size="13" lengthAdjust="spacing" textLength="121.3037" x="19.2646" y="567.3481">// 7. Retour succ&#232;s</text><text fill="#000000" font-family="sans-serif" font-size="13" lengthAdjust="spacing" textLength="168.4224" x="19.2646" y="582.481">Controller.retourSucces();</text><text fill="#000000" font-family="sans-serif" font-size="13" lengthAdjust="spacing" textLength="388.2798" x="19.2646" y="597.6138">UI.afficherMessage("Film ajout&#233; + notifications envoy&#233;es");</text><text fill="#000000" font-family="sans-serif" font-size="13" lengthAdjust="spacing" textLength="8.271" x="11" y="612.7466">}</text><polygon fill="#181818" points="858.0137,642.9453,868.0137,646.9453,858.0137,650.9453,862.0137,646.9453" style="stroke:#181818;stroke-width:1;"/><line style="stroke:#181818;stroke-width:1;" x1="472.3018" x2="864.0137" y1="646.9453" y2="646.9453"/><text fill="#000000" font-family="sans-serif" font-size="13" lengthAdjust="spacing" textLength="373.7119" x="479.3018" y="641.8794">saisir donn&#233;es film (titre, dur&#233;e, genre, r&#233;alisateur, code)</text><polygon fill="#181818" points="1050.2583,672.0781,1060.2583,676.0781,1050.2583,680.0781,1054.2583,676.0781" style="stroke:#181818;stroke-width:1;"/><line style="stroke:#181818;stroke-width:1;" x1="870.0137" x2="1056.2583" y1="676.0781" y2="676.0781"/><text fill="#000000" font-family="sans-serif" font-size="13" lengthAdjust="spacing" textLength="156.2222" x="877.0137" y="671.0122">soumettre nouveau film</text><polygon fill="#181818" points="1384.646,701.2109,1394.646,705.2109,1384.646,709.2109,1388.646,705.2109" style="stroke:#181818;stroke-width:1;"/><line style="stroke:#181818;stroke-width:1;" x1="1062.2583" x2="1390.646" y1="705.2109" y2="705.2109"/><text fill="#000000" font-family="sans-serif" font-size="13" lengthAdjust="spacing" textLength="140.645" x="1069.2583" y="700.145">valider et ajouter film</text><path d="M397,720.2109 L461.4429,720.2109 L461.4429,727.3438 L451.4429,737.3438 L397,737.3438 L397,720.2109 " fill="#EEEEEE" style="stroke:#000000;stroke-width:1.5;"/><rect fill="transparent" height="633.3984" style="stroke:#000000;stroke-width:1.5;" width="1657.9351" x="397" y="720.2109"/><text fill="#000000" font-family="sans-serif" font-size="13" font-weight="bold" lengthAdjust="spacing" textLength="19.4429" x="412" y="733.2778">alt</text><text fill="#000000" font-family="sans-serif" font-size="11" font-weight="bold" lengthAdjust="spacing" textLength="194.4121" x="476.4429" y="732.4214">[Pr&#233;conditions non respect&#233;es]</text><polygon fill="#181818" points="1073.2583,754.4766,1063.2583,758.4766,1073.2583,762.4766,1069.2583,758.4766" style="stroke:#181818;stroke-width:1;"/><line style="stroke:#181818;stroke-width:1;" x1="1067.2583" x2="1395.646" y1="758.4766" y2="758.4766"/><text fill="#000000" font-family="sans-serif" font-size="13" lengthAdjust="spacing" textLength="310.3877" x="1079.2583" y="753.4106">erreur de validation (champ vide ou mal form&#233;)</text><polygon fill="#181818" points="881.0137,783.6094,871.0137,787.6094,881.0137,791.6094,877.0137,787.6094" style="stroke:#181818;stroke-width:1;"/><line style="stroke:#181818;stroke-width:1;" x1="875.0137" x2="1061.2583" y1="787.6094" y2="787.6094"/><text fill="#000000" font-family="sans-serif" font-size="13" lengthAdjust="spacing" textLength="168.2446" x="887.0137" y="782.5435">afficher message d'erreur</text><polygon fill="#181818" points="483.3018,812.7422,473.3018,816.7422,483.3018,820.7422,479.3018,816.7422" style="stroke:#181818;stroke-width:1;"/><line style="stroke:#181818;stroke-width:1;" x1="477.3018" x2="869.0137" y1="816.7422" y2="816.7422"/><text fill="#000000" font-family="sans-serif" font-size="13" lengthAdjust="spacing" textLength="104.127" x="489.3018" y="811.6763">&#233;chec ajout film</text><line style="stroke:#000000;stroke-width:1;stroke-dasharray:2.0,2.0;" x1="397" x2="2054.9351" y1="825.7422" y2="825.7422"/><text fill="#000000" font-family="sans-serif" font-size="11" font-weight="bold" lengthAdjust="spacing" textLength="117.2241" x="402" y="835.9526">[Pr&#233;conditions OK]</text><polygon fill="#181818" points="1582.7813,856.6797,1592.7813,860.6797,1582.7813,864.6797,1586.7813,860.6797" style="stroke:#181818;stroke-width:1;"/><line style="stroke:#181818;stroke-width:1;" x1="1396.646" x2="1588.7813" y1="860.6797" y2="860.6797"/><text fill="#000000" font-family="sans-serif" font-size="13" lengthAdjust="spacing" textLength="174.1353" x="1403.646" y="855.6138">v&#233;rifier doublon (par code)</text><polygon fill="#181818" points="1407.646,885.8125,1397.646,889.8125,1407.646,893.8125,1403.646,889.8125" style="stroke:#181818;stroke-width:1;"/><line style="stroke:#181818;stroke-width:1;stroke-dasharray:2.0,2.0;" x1="1401.646" x2="1593.7813" y1="889.8125" y2="889.8125"/><text fill="#000000" font-family="sans-serif" font-size="13" lengthAdjust="spacing" textLength="137.3062" x="1413.646" y="884.7466">film existant ? (false)</text><path d="M407,904.8125 L471.4429,904.8125 L471.4429,911.9453 L461.4429,921.9453 L407,921.9453 L407,904.8125 " fill="#EEEEEE" style="stroke:#000000;stroke-width:1.5;"/><rect fill="transparent" height="441.7969" style="stroke:#000000;stroke-width:1.5;" width="1637.9351" x="407" y="904.8125"/><text fill="#000000" font-family="sans-serif" font-size="13" font-weight="bold" lengthAdjust="spacing" textLength="19.4429" x="422" y="917.8794">alt</text><text fill="#000000" font-family="sans-serif" font-size="11" font-weight="bold" lengthAdjust="spacing" textLength="102.647" x="486.4429" y="917.0229">[Film inexistant]</text><polygon fill="#181818" points="1582.7813,939.0781,1592.7813,943.0781,1582.7813,947.0781,1586.7813,943.0781" style="stroke:#181818;stroke-width:1;"/><line style="stroke:#181818;stroke-width:1;" x1="1396.646" x2="1588.7813" y1="943.0781" y2="943.0781"/><text fill="#000000" font-family="sans-serif" font-size="13" lengthAdjust="spacing" textLength="73.9058" x="1403.646" y="938.0122">ins&#233;rer film</text><polygon fill="#181818" points="1407.646,968.2109,1397.646,972.2109,1407.646,976.2109,1403.646,972.2109" style="stroke:#181818;stroke-width:1;"/><line style="stroke:#181818;stroke-width:1;stroke-dasharray:2.0,2.0;" x1="1401.646" x2="1593.7813" y1="972.2109" y2="972.2109"/><text fill="#000000" font-family="sans-serif" font-size="13" lengthAdjust="spacing" textLength="143.4063" x="1413.646" y="967.145">confirmation insertion</text><polygon fill="#181818" points="1730.3647,997.3438,1740.3647,1001.3438,1730.3647,1005.3438,1734.3647,1001.3438" style="stroke:#181818;stroke-width:1;"/><line style="stroke:#181818;stroke-width:1;" x1="1396.646" x2="1736.3647" y1="1001.3438" y2="1001.3438"/><text fill="#000000" font-family="sans-serif" font-size="13" lengthAdjust="spacing" textLength="210.2725" x="1403.646" y="996.2778">cr&#233;er notification (nouveau film)</text><polygon fill="#181818" points="1949.2378,1026.4766,1959.2378,1030.4766,1949.2378,1034.4766,1953.2378,1030.4766" style="stroke:#181818;stroke-width:1;"/><line style="stroke:#181818;stroke-width:1;" x1="1742.3647" x2="1955.2378" y1="1030.4766" y2="1030.4766"/><text fill="#000000" font-family="sans-serif" font-size="13" lengthAdjust="spacing" textLength="194.873" x="1749.3647" y="1025.4106">r&#233;cup&#233;rer tous les utilisateurs</text><polygon fill="#181818" points="1753.3647,1055.6094,1743.3647,1059.6094,1753.3647,1063.6094,1749.3647,1059.6094" style="stroke:#181818;stroke-width:1;"/><line style="stroke:#181818;stroke-width:1;stroke-dasharray:2.0,2.0;" x1="1747.3647" x2="1960.2378" y1="1059.6094" y2="1059.6094"/><text fill="#000000" font-family="sans-serif" font-size="13" lengthAdjust="spacing" textLength="103.5874" x="1759.3647" y="1054.5435">liste utilisateurs</text><path d="M1659.3296,1074.6094 L1735.9536,1074.6094 L1735.9536,1081.7422 L1725.9536,1091.7422 L1659.3296,1091.7422 L1659.3296,1074.6094 " fill="#EEEEEE" style="stroke:#000000;stroke-width:1.5;"/><rect fill="transparent" height="46.2656" style="stroke:#000000;stroke-width:1.5;" width="375.6055" x="1659.3296" y="1074.6094"/><text fill="#000000" font-family="sans-serif" font-size="13" font-weight="bold" lengthAdjust="spacing" textLength="31.624" x="1674.3296" y="1087.6763">loop</text><text fill="#000000" font-family="sans-serif" font-size="11" font-weight="bold" lengthAdjust="spacing" textLength="155.6865" x="1750.9536" y="1086.8198">[pour chaque utilisateur]</text><polygon fill="#181818" points="1949.2378,1108.875,1959.2378,1112.875,1949.2378,1116.875,1953.2378,1112.875" style="stroke:#181818;stroke-width:1;"/><line style="stroke:#181818;stroke-width:1;" x1="1742.3647" x2="1955.2378" y1="1112.875" y2="1112.875"/><text fill="#000000" font-family="sans-serif" font-size="13" lengthAdjust="spacing" textLength="149.2397" x="1749.3647" y="1107.8091">enregistrer notification</text><polygon fill="#181818" points="1407.646,1145.0078,1397.646,1149.0078,1407.646,1153.0078,1403.646,1149.0078" style="stroke:#181818;stroke-width:1;"/><line style="stroke:#181818;stroke-width:1;stroke-dasharray:2.0,2.0;" x1="1401.646" x2="1741.3647" y1="1149.0078" y2="1149.0078"/><text fill="#000000" font-family="sans-serif" font-size="13" lengthAdjust="spacing" textLength="146.3579" x="1413.646" y="1143.9419">notifications envoy&#233;es</text><polygon fill="#181818" points="1073.2583,1174.1406,1063.2583,1178.1406,1073.2583,1182.1406,1069.2583,1178.1406" style="stroke:#181818;stroke-width:1;"/><line style="stroke:#181818;stroke-width:1;" x1="1067.2583" x2="1395.646" y1="1178.1406" y2="1178.1406"/><text fill="#000000" font-family="sans-serif" font-size="13" lengthAdjust="spacing" textLength="109.6748" x="1079.2583" y="1173.0747">succ&#232;s ajout film</text><polygon fill="#181818" points="881.0137,1203.2734,871.0137,1207.2734,881.0137,1211.2734,877.0137,1207.2734" style="stroke:#181818;stroke-width:1;"/><line style="stroke:#181818;stroke-width:1;" x1="875.0137" x2="1061.2583" y1="1207.2734" y2="1207.2734"/><text fill="#000000" font-family="sans-serif" font-size="13" lengthAdjust="spacing" textLength="160.2275" x="887.0137" y="1202.2075">afficher message succ&#232;s</text><polygon fill="#181818" points="483.3018,1232.4063,473.3018,1236.4063,483.3018,1240.4063,479.3018,1236.4063" style="stroke:#181818;stroke-width:1;"/><line style="stroke:#181818;stroke-width:1;" x1="477.3018" x2="869.0137" y1="1236.4063" y2="1236.4063"/><text fill="#000000" font-family="sans-serif" font-size="13" lengthAdjust="spacing" textLength="234.9775" x="489.3018" y="1231.3403">film ajout&#233; + notifications envoy&#233;es</text><line style="stroke:#000000;stroke-width:1;stroke-dasharray:2.0,2.0;" x1="407" x2="2044.9351" y1="1245.4063" y2="1245.4063"/><text fill="#000000" font-family="sans-serif" font-size="11" font-weight="bold" lengthAdjust="spacing" textLength="121.4028" x="412" y="1255.6167">[Film d&#233;j&#224; existant]</text><polygon fill="#181818" points="1073.2583,1276.3438,1063.2583,1280.3438,1073.2583,1284.3438,1069.2583,1280.3438" style="stroke:#181818;stroke-width:1;"/><line style="stroke:#181818;stroke-width:1;" x1="1067.2583" x2="1395.646" y1="1280.3438" y2="1280.3438"/><text fill="#000000" font-family="sans-serif" font-size="13" lengthAdjust="spacing" textLength="105.4155" x="1079.2583" y="1275.2778">erreur : doublon</text><polygon fill="#181818" points="881.0137,1305.4766,871.0137,1309.4766,881.0137,1313.4766,877.0137,1309.4766" style="stroke:#181818;stroke-width:1;"/><line style="stroke:#181818;stroke-width:1;" x1="875.0137" x2="1061.2583" y1="1309.4766" y2="1309.4766"/><text fill="#000000" font-family="sans-serif" font-size="13" lengthAdjust="spacing" textLength="156.4189" x="887.0137" y="1304.4106">afficher message erreur</text><polygon fill="#181818" points="483.3018,1334.6094,473.3018,1338.6094,483.3018,1342.6094,479.3018,1338.6094" style="stroke:#181818;stroke-width:1;"/><line style="stroke:#181818;stroke-width:1;" x1="477.3018" x2="869.0137" y1="1338.6094" y2="1338.6094"/><text fill="#000000" font-family="sans-serif" font-size="13" lengthAdjust="spacing" textLength="98.0269" x="489.3018" y="1333.5435">film non ajout&#233;</text><!--SRC=[bLLDZ-D44BtxLnIvu8YCLtnBGO2O2KWZO44imxt7Bi_sokas_H61q4fxtP_0ZIEvym_yJ_WbL7Mx7RSdipiSHfFOhrxNUrMl8sgd3NpLxAMIrXdXq9kY5yR9MlP2ELXTAuUc5JK6q0g4XPlh77AbbJF3FntLVYExVS24PxhhS47t3Cr1rZZXnkyvw59OtE5EApKSqGRSxl8iprFjP2jhuQIElSqVt2UzSRAJDgYCj3SMZINkGcc7q67hGBTBFyGBxSa4xhaK_6gR0pRGRldb6lue09uyWVSh-ExVLty6B5WXhNJ4RQ4P5K7ZeQK2E4W17I5bCfdgRwwhK69OFw8DnxRhpuh8_K7adYg0cb1sZuiJX8VwD1OgFGsaCbZZGKkpOFwGc15iD1OEmz6GanXeUpCSYQwHRAibk6oXV6USGLK_5_lU_Y8wsQ0bmkX3TgILTqhGXw-DeNRArLKe0QaEiMf5NN09YHSjpUyvck_HMd67vMfuJLzh25C8jYMmGUUDuiylHmaVdPTW9Qc8ZkDlD3Q4PZY-6Fw2ijODhaSzkyigles-LE7T8xGmF1460bgtD-a9UALLL3GS7vRpSGNNYjImwzFEe89RMcLeS9eseQbvoL1SJlMJ2gveUY4GG5k2YaRFnMgM56Rmisp0voaPl2o-PzwVjRTbQBMbAwFqiCrAab7p05Qe3DvnJj3CdvT-0wkdsXzGZA8QQNkjv6s7qOtamASL_8HEUmFMr_NmjrrkChzxHgzmxEr1mqUpuRrSUF3Zzt3DKFtB0bN302oAFEDmyGLna-QOpLFGGlkbawHnGpCYg-d_7GlV0FkU3Df0t3KY8QgJ1gRKdl9B17JooPDYXg6ACMm4Zv4nFCpnPehuGdGEVioI6jRCeEsnTkEYmCIqR0F3FlDgX1FYnfGXt7HHqMFjOIyw7lz-EAuNiPWCIlR3FleFpRkHUGm40nVURe6QpZDUO4Sxlb3pmxTB0RjBDcJCEK_5ttRSDTtyaBBDuO2BpCBJLS0_3Lz2sGewRbq4DDiOLaQg10dFpnrDcQF3qmGIwjvvfA6LPXyjbIdInJdQUKwuaXVAP3iBvNnDrXD9LidJY0ac4dRHzx5H2emDT_eyl1D7ghcutqaNBiwiQYhhjEwXvvZIklpgCzW4UdEFiwiYKpkLKpAB1xHcNZyGxtDUvocC5yny1rF9OxRyT3-DJfvVzFPHTr5W2Gauz-FoLYbZahSf3_zBo2oiRzCn-n4hqeZexpy0]--></g></svg>